<svg contentScriptType="text/ecmascript" contentStyleType="text/css" height="225" preserveAspectRatio="xMidYMid meet" viewBox="0 0 750 225" width="750" xmlns="http://www.w3.org/2000/svg" xmlns:xlink="http://www.w3.org/1999/xlink" zoomAndPan="magnify"><defs><clipPath id="a"><path d="m22.5 53.007812h120.289062v104.113282h-120.289062zm0 0"/></clipPath><g id="b"><path d="m33.632812-82.683594-32.699218 82.683594h21.371094l4.554687-12.027344h27.914063l4.554687 12.027344h22.539063l-33.984376-82.683594zm7.242188 32.933594 6.308594 17.75.464844 1.402344h-13.546876l.699219-1.867188zm0 0"/></g></defs><g fill="#fdfaf6"><use x="174.706956" xlink:actuate="onLoad" xlink:href="#b" xlink:show="embed" xlink:type="simple" xmlns:xlink="http://www.w3.org/1999/xlink" y="152.436239"/><path d="m37.605469-82.453125h-31.765625v82.453125h19.851562v-27.679688h3.273438l17.050781 27.679688h21.253906v-3.738281l-17.519531-25.925781c10.746094-5.136719 16-15.648438 16-25.574219 0-13.550781-9.457031-27.214844-28.144531-27.214844zm-.46875 36.671875h-11.445313v-17.515625h11.445313c6.074219 0 9.109375 4.554687 9.109375 8.875 0 4.203125-3.152344 8.640625-9.109375 8.640625zm0 0" transform="translate(254.107086 152.436239)" xlink:actuate="onLoad" xlink:show="embed" xlink:type="simple" xmlns:xlink="http://www.w3.org/1999/xlink"/><path d="m50.335938 0h24.757812v-1.050781l-31.648438-40.058594 28.960938-39.472656v-1.167969h-23.707031l-22.65625 31.765625v-31.765625h-19.96875v81.75h19.96875v-31.648438zm0 0" transform="translate(322.76475 152.436239)" xlink:actuate="onLoad" xlink:show="embed" xlink:type="simple" xmlns:xlink="http://www.w3.org/1999/xlink"/><path d="m5.839844-81.75v81.75h54.304687v-19.269531h-34.335937v-62.480469zm0 0" transform="translate(424.232948 152.436239)" xlink:actuate="onLoad" xlink:show="embed" xlink:type="simple" xmlns:xlink="http://www.w3.org/1999/xlink"/><use x="486.234974" xlink:actuate="onLoad" xlink:href="#b" xlink:show="embed" xlink:type="simple" xmlns:xlink="http://www.w3.org/1999/xlink" y="152.436239"/><path d="m43.796875-81.75h-37.839844v81.75h37.605469c17.167969 0 26.160156-13.195312 26.160156-26.394531 0-6.890625-3.503906-14.015625-12.148437-18.453125 5.375-3.734375 7.828125-9.457032 7.828125-15.0625 0-10.746094-8.644532-21.839844-21.605469-21.839844zm-3.039063 29.546875h-15.066406v-11.445313h15.300782c3.152343 0 4.90625 2.800782 4.90625 5.605469 0 2.917969-1.636719 5.839844-5.140626 5.839844zm2.804688 33.285156h-17.871094v-14.832031h17.871094c4.203125 0 6.304688 3.734375 6.304688 7.472656 0 3.738282-2.101563 7.359375-6.304688 7.359375zm0 0" transform="translate(565.635112 152.436239)" xlink:actuate="onLoad" xlink:show="embed" xlink:type="simple" xmlns:xlink="http://www.w3.org/1999/xlink"/><path d="m46.363281-55.941406h20.089844c0-18.800782-15.769531-26.976563-30.367187-26.976563-17.398438 0-32.113282 10.742188-31.179688 28.730469v-.117188c1.515625 18.800782 17.167969 21.722657 30.363281 23.003907 3.035157.351562 12.378907.585937 12.378907 6.425781 0 4.671875-5.253907 6.539062-11.792969 6.539062-4.554688 0-11.332031-1.519531-11.332031-9.574218h-20.203126c0 20.785156 18.101563 28.960937 31.417969 28.960937 15.53125 0 32.113281-9.808593 32.113281-26.859375 0-1.753906-.230468-3.855468-.582031-5.722656-3.503906-14.714844-18.101562-17.753906-29.664062-19.269531-2.6875-.234375-12.378907-.351563-12.378907-6.425781 0-4.4375 4.320313-7.121094 10.511719-7.121094 6.1875 0 10.625 2.917968 10.625 8.40625zm0 0" transform="translate(637.562229 152.436239)" xlink:actuate="onLoad" xlink:show="embed" xlink:type="simple" xmlns:xlink="http://www.w3.org/1999/xlink"/></g><path d="m22.835938 156.710938 65.992187-114.296876 65.992187 114.296876zm0 0" fill="#549fd7"/><path d="m31.21875 152.304688 41.480469-71.847657 41.484375 71.847657zm0 0" fill="#e62b4a"/><path d="m31.21875 152.304688 29.71875-51.476563 29.722656 51.476563zm0 0" fill="#b5e1f9"/><g clip-path="url(#a)"><path d="m82.644531 53.007812-60.074219 104.113282h120.148438zm0 10.019532 51.402344 89.085937h-102.804687zm0 0" fill="#243544"/></g></svg>