<svg xmlns="http://www.w3.org/2000/svg" xmlns:xlink="http://www.w3.org/1999/xlink" width="500" zoomAndPan="magnify" viewBox="0 0 375 374.999991" height="500" preserveAspectRatio="xMidYMid meet" version="1.0"><defs><clipPath id="88aed5eba2"><path d="M 21 183 L 347 183 L 347 351 L 21 351 Z M 21 183 " clip-rule="nonzero"/></clipPath><clipPath id="be956db4ea"><path d="M 351.992188 346.160156 L 23.527344 354.527344 L 19.34375 190.292969 L 347.808594 181.925781 Z M 351.992188 346.160156 " clip-rule="nonzero"/></clipPath><clipPath id="eb9d2f6c03"><path d="M 346.179688 199.371094 C 340.019531 282.929688 271.519531 348.207031 187.761719 350.34375 C 104.003906 352.476562 32.265625 290.765625 21.859375 207.632812 C 20.855469 199.589844 26.554688 192.257812 34.59375 191.25 C 42.636719 190.246094 49.96875 195.945312 50.976562 203.988281 C 59.507812 272.160156 118.332031 322.757812 187.011719 321.007812 C 255.695312 319.261719 311.863281 265.730469 316.917969 197.210938 C 317.511719 189.132812 324.546875 183.0625 332.625 183.660156 C 340.707031 184.253906 346.773438 191.289062 346.179688 199.371094 Z M 346.179688 199.371094 " clip-rule="nonzero"/></clipPath><clipPath id="3e05540c22"><path d="M 122 183 L 347 183 L 347 351 L 122 351 Z M 122 183 " clip-rule="nonzero"/></clipPath><clipPath id="66df72d897"><path d="M 352.1875 353.796875 L 121.753906 359.667969 L 117.375 187.796875 L 347.808594 181.925781 Z M 352.1875 353.796875 " clip-rule="nonzero"/></clipPath><clipPath id="178469b71d"><path d="M 346.179688 199.371094 C 342.496094 249.335938 316.035156 294.835938 274.429688 322.75 C 232.824219 350.664062 180.691406 357.894531 133.058594 342.359375 C 125.355469 339.847656 121.148438 331.566406 123.660156 323.863281 C 126.175781 316.160156 134.457031 311.953125 142.160156 314.464844 C 181.21875 327.203125 223.964844 321.273438 258.082031 298.382812 C 292.199219 275.492188 313.894531 238.1875 316.917969 197.210938 C 317.511719 189.132812 324.546875 183.0625 332.625 183.660156 C 340.707031 184.253906 346.773438 191.289062 346.179688 199.371094 Z M 346.179688 199.371094 " clip-rule="nonzero"/></clipPath><clipPath id="b2759a8881"><path d="M 48 21 L 348 21 L 348 259 L 48 259 Z M 48 21 " clip-rule="nonzero"/></clipPath><clipPath id="0058166e8f"><path d="M 120.785156 -37.53125 L 407.480469 122.984375 L 327.222656 266.332031 L 40.527344 105.816406 Z M 120.785156 -37.53125 " clip-rule="nonzero"/></clipPath><clipPath id="287495067b"><path d="M 50.835938 91.648438 C 98.796875 22.949219 191.027344 1.796875 264.132812 42.726562 C 337.238281 83.660156 367.410156 173.34375 333.910156 250.140625 C 330.671875 257.566406 322.023438 260.960938 314.597656 257.722656 C 307.171875 254.480469 303.777344 245.835938 307.015625 238.410156 C 334.484375 175.4375 309.746094 101.894531 249.796875 68.328125 C 189.851562 34.765625 114.222656 52.113281 74.894531 108.445312 C 70.257812 115.089844 61.109375 116.714844 54.464844 112.078125 C 47.824219 107.441406 46.195312 98.292969 50.835938 91.648438 Z M 50.835938 91.648438 " clip-rule="nonzero"/></clipPath><clipPath id="9b9d2c75b5"><path d="M 48 21 L 311 21 L 311 115 L 48 115 Z M 48 21 " clip-rule="nonzero"/></clipPath><clipPath id="9cb3f09617"><path d="M 124.519531 -44.199219 L 325.648438 68.414062 L 241.65625 218.425781 L 40.527344 105.816406 Z M 124.519531 -44.199219 " clip-rule="nonzero"/></clipPath><clipPath id="a49d822b60"><path d="M 50.835938 91.648438 C 79.515625 50.566406 125.496094 24.957031 175.523438 22.199219 C 225.550781 19.441406 274.066406 39.839844 307.089844 77.519531 C 312.429688 83.613281 311.820312 92.882812 305.726562 98.222656 C 299.632812 103.5625 290.363281 102.953125 285.023438 96.859375 C 257.941406 65.960938 218.160156 49.234375 177.136719 51.496094 C 136.117188 53.757812 98.410156 74.757812 74.894531 108.445312 C 70.257812 115.089844 61.109375 116.714844 54.464844 112.078125 C 47.824219 107.441406 46.195312 98.292969 50.835938 91.648438 Z M 50.835938 91.648438 " clip-rule="nonzero"/></clipPath><clipPath id="973543debc"><path d="M 20 22 L 330 22 L 330 247 L 20 247 Z M 20 22 " clip-rule="nonzero"/></clipPath><clipPath id="611feb2755"><path d="M -32.542969 101.726562 L 270.84375 -29.996094 L 336.707031 121.699219 L 33.320312 253.421875 Z M -32.542969 101.726562 " clip-rule="nonzero"/></clipPath><clipPath id="47754ef453"><path d="M 28.257812 236.527344 C 2.484375 156.222656 41.785156 69.457031 119.152344 35.867188 C 196.515625 2.277344 286.742188 32.804688 327.820312 106.464844 C 331.792969 113.589844 329.238281 122.585938 322.113281 126.558594 C 314.988281 130.53125 305.996094 127.976562 302.023438 120.851562 C 268.339844 60.449219 194.351562 35.414062 130.914062 62.960938 C 67.476562 90.503906 35.25 161.652344 56.382812 227.503906 C 58.875 235.269531 54.601562 243.585938 46.832031 246.078125 C 39.066406 248.570312 30.75 244.296875 28.257812 236.527344 Z M 28.257812 236.527344 " clip-rule="nonzero"/></clipPath><clipPath id="f35fd75f08"><path d="M 20 22 L 241 22 L 241 247 L 20 247 Z M 20 22 " clip-rule="nonzero"/></clipPath><clipPath id="4942bb4f85"><path d="M -36.882812 91.734375 L 215.941406 -18.039062 L 286.140625 143.652344 L 33.320312 253.421875 Z M -36.882812 91.734375 " clip-rule="nonzero"/></clipPath><clipPath id="974ced454b"><path d="M 28.257812 236.527344 C 9.773438 178.925781 24.476562 115.828125 66.523438 72.332031 C 108.570312 28.839844 171.140625 12.007812 229.332031 28.535156 C 234.40625 29.976562 238.328125 34.015625 239.617188 39.132812 C 240.90625 44.246094 239.371094 49.664062 235.582031 53.335938 C 231.796875 57.011719 226.339844 58.386719 221.261719 56.945312 C 173.542969 43.394531 122.238281 57.195312 87.761719 92.863281 C 53.28125 128.527344 41.222656 180.269531 56.382812 227.503906 C 58.875 235.269531 54.601562 243.585938 46.832031 246.078125 C 39.066406 248.570312 30.75 244.296875 28.257812 236.527344 Z M 28.257812 236.527344 " clip-rule="nonzero"/></clipPath></defs><g clip-path="url(#88aed5eba2)"><g clip-path="url(#be956db4ea)"><g clip-path="url(#eb9d2f6c03)"><path fill="#5ce2e6" d="M 350.71875 346.191406 L 24.800781 354.492188 L 20.652344 191.535156 L 346.566406 183.234375 Z M 350.71875 346.191406 " fill-opacity="1" fill-rule="nonzero"/></g></g></g><g clip-path="url(#3e05540c22)"><g clip-path="url(#66df72d897)"><g clip-path="url(#178469b71d)"><path fill="#ff8bd2" d="M 350.71875 346.191406 L 24.800781 354.492188 L 20.652344 191.535156 L 346.566406 183.234375 Z M 350.71875 346.191406 " fill-opacity="1" fill-rule="nonzero"/></g></g></g><g clip-path="url(#b2759a8881)"><g clip-path="url(#0058166e8f)"><g clip-path="url(#287495067b)"><path fill="#ffde69" d="M 121.898438 -36.90625 L 406.367188 122.363281 L 326.730469 264.597656 L 42.261719 105.328125 Z M 121.898438 -36.90625 " fill-opacity="1" fill-rule="nonzero"/></g></g></g><g clip-path="url(#9b9d2c75b5)"><g clip-path="url(#9cb3f09617)"><g clip-path="url(#a49d822b60)"><path fill="#41b8d5" d="M 121.898438 -36.90625 L 406.367188 122.363281 L 326.730469 264.597656 L 42.261719 105.328125 Z M 121.898438 -36.90625 " fill-opacity="1" fill-rule="nonzero"/></g></g></g><g clip-path="url(#973543debc)"><g clip-path="url(#611feb2755)"><g clip-path="url(#47754ef453)"><path fill="#ffde69" d="M -31.367188 101.21875 L 269.667969 -29.484375 L 335.019531 121.03125 L 33.984375 251.734375 Z M -31.367188 101.21875 " fill-opacity="1" fill-rule="nonzero"/></g></g></g><g clip-path="url(#f35fd75f08)"><g clip-path="url(#4942bb4f85)"><g clip-path="url(#974ced454b)"><path fill="#5c7d9b" d="M -31.367188 101.21875 L 269.667969 -29.484375 L 335.019531 121.03125 L 33.984375 251.734375 Z M -31.367188 101.21875 " fill-opacity="1" fill-rule="nonzero"/></g></g></g></svg>