<svg xmlns="http://www.w3.org/2000/svg" id="Layer_1" x="0" y="0" enable-background="new 0 0 515 515" version="1.1" viewBox="0 0 515 515" xml:space="preserve"><path fill="#549fd7" d="M73.4675903,409.407196l4.4049149,24.4572144
					c0.3670883,2.0381775,2.1408844,3.5209961,4.2118835,3.5209961h29.7821198c2.0709991,0,3.84478-1.4829102,4.2118835-3.5209961
					l4.4048996-24.4572144H73.4675903z" class="colorfb688f svgShape"></path><polygon fill="#ff4f6c" points="119.597 414.33 120.483 409.407 73.468 409.407 74.354 414.33" class="colorff4f7c svgShape"></polygon><path fill="#fdfaf6" d="M114.22789 419.8797913c0 .2218018-.0221024.4433899-.0811996.6653137l-2.4015045 9.3395996c-.251297.9976807-1.1600952 1.6997986-2.1945953 1.6997986-1.4113998 0-2.4754028-1.2711182-2.2314987-2.6602173l1.6847-9.4951782c.2215958-1.2635193 1.3153-2.1796265 2.5935974-2.1796265C113.0899887 417.2494812 114.22789 418.468689 114.22789 419.8797913zM104.5333862 419.9317017c0 .1031799 0 .1994934-.0147934.3031006l-1.0493011 9.3396912c-.1331024 1.1451111-1.1010056 2.0100098-2.2537003 2.0100098h-.0960846c-1.2783203 0-2.3053131-1.0567932-2.261116-2.3427124l.3030014-9.3916016c.0442963-1.4483032 1.2340012-2.600708 2.6821976-2.600708C103.3435898 417.2494812 104.5333862 418.4758911 104.5333862 419.9317017zM94.7943878 419.8501892l.3030014 9.3916016c.0369034 1.2859192-.9827957 2.3427124-2.2686005 2.3427124h-.0886002c-1.1600952 0-2.1280975-.8648987-2.2536774-2.0100098l-1.049324-9.3396912c-.1846771-1.5890198 1.0641022-2.985321 2.6675034-2.985321.7240982 0 1.3818207.2879028 1.8694992.7609253C94.461792 418.4758911 94.7721863 419.1264038 94.7943878 419.8501892zM86.6293869 428.9242859c.2511215 1.3890991-.8202972 2.6602173-2.2315979 2.6602173-1.0345001 0-1.935997-.7021179-2.1945953-1.6997986l-2.4015045-9.3395996c-.4284973-1.6701965.8275986-3.2956238 2.5493011-3.2956238.6427994 0 1.2340012.2288208 1.6995163.6130066.4580841.3918152.7905807.9312134.9014816 1.5666199L86.6293869 428.9242859z" class="colorffffff svgShape"></path><path fill="#549fd7" d="M122.6959915,404.8283081v5.9852905c0,0.8497009-0.6872025,1.5293884-1.5296021,1.5293884H72.7893906
					c-0.8498001,0-1.5368805-0.6796875-1.5368805-1.5293884v-5.9852905c0-0.8424988,0.6870804-1.5298157,1.5368805-1.5298157
					h48.3769989C122.0087891,403.2984924,122.6959915,403.9858093,122.6959915,404.8283081z" class="colorfb688f svgShape"></path><g fill="#000000" class="color000000 svgShape"><path fill="#549fd7" d="M95.16819,387.1326904c0,1.7989197-1.4582977,3.2572021-3.2572021,3.2572021
						c-1.7988968,0-3.2570953-1.4582825-3.2570953-3.2572021c0-1.7987976,1.4581985-3.2570801,3.2570953-3.2570801
						C93.7098923,383.8756104,95.16819,385.3338928,95.16819,387.1326904z" class="colorfb688f svgShape"></path><path fill="#faf3ea" d="M93.8911896,388.0744934l-12.0787964,20.0291138
							c-0.6007004,0.9996948-1.9043045,1.3161011-2.9060059,0.7140808
							c-1.0062943-0.6047974-1.3339996-1.9015808-0.7332001-2.9013062l12.0787048-20.0290833
							c0.6008987-0.9999084,1.8996964-1.3188171,2.9059982-0.7139893c0.5009003,0.3009949,0.8350983,0.775177,0.9684982,1.3025818
							C94.2549896,387.0007019,94.1929932,387.5722961,93.8911896,388.0744934z" class="coloreaeafa svgShape"></path><circle cx="80.088" cy="406.991" r=".83" fill="#ef546e" class="coloref546b svgShape"></circle><path fill="#ef546e" d="M92.5151901,387.1326904c0,0.3337097-0.2705002,0.6042175-0.6042023,0.6042175
						c-0.3335953,0-0.6040955-0.2705078-0.6040955-0.6042175c0-0.3335876,0.2705002-0.6040955,0.6040955-0.6040955
						C92.2446899,386.528595,92.5151901,386.7991028,92.5151901,387.1326904z" class="coloref546b svgShape"></path><g fill="#000000" class="color000000 svgShape"><path fill="#549fd7" d="M98.7825928,387.1326904c0,1.7989197,1.4582977,3.2572021,3.2571945,3.2572021
						c1.7989044,0,3.2572021-1.4582825,3.2572021-3.2572021c0-1.7987976-1.4582977-3.2570801-3.2572021-3.2570801
						C100.2408905,383.8756104,98.7825928,385.3338928,98.7825928,387.1326904z" class="colorfb688f svgShape"></path><path fill="#faf3ea" d="M100.0596924,388.0744934l12.0786972,20.0291138
							c0.6007996,0.9996948,1.9042969,1.3161011,2.9059982,0.7140808c1.0064011-0.6047974,1.3341217-1.9015808,0.7332993-2.9013062
							l-12.0786972-20.0290833c-0.6008987-0.9999084-1.8996964-1.3188171-2.9059982-0.7139893
							c-0.5009003,0.3009949-0.8350983,0.775177-0.968483,1.3025818
							C99.6957932,387.0007019,99.7578888,387.5722961,100.0596924,388.0744934z" class="coloreaeafa svgShape"></path><path fill="#ef546e" d="M113.0323868 406.9911804c0 .4584045.3717041.8301086.8301239.8301086.4584808 0 .8300781-.3717041.8300781-.8301086 0-.4584961-.3715973-.8300781-.8300781-.8300781C113.4040909 406.1611023 113.0323868 406.5326843 113.0323868 406.9911804zM101.4356918 387.1326904c0 .3337097.2705002.6042175.6040955.6042175.3337173 0 .6042023-.2705078.6042023-.6042175 0-.3335876-.2704849-.6040955-.6042023-.6040955C101.706192 386.528595 101.4356918 386.7991028 101.4356918 387.1326904z" class="coloref546b svgShape"></path></g></g><g fill="#000000" class="color000000 svgShape"><path fill="#eddcc5" d="M482.5,437.9602966h-450c-0.8281002,0-1.5-0.6719055-1.5-1.5c0-0.8282166,0.6718998-1.5,1.5-1.5h450
											c0.8280945,0,1.5,0.6717834,1.5,1.5C484,437.2883911,483.3280945,437.9602966,482.5,437.9602966z" class="colorc5cced svgShape"></path><path fill="#eedec8" d="M173.2885132,437.1987c-14.880127,0-26.9839172-12.1169128-26.9839172-27.0101929V104.0254059
										c0-14.8801041,12.1037903-26.9857025,26.9839172-26.9857025H307.64328
										c14.8800964,0,26.9862976,12.1055984,26.9862976,26.9857025v306.1630859
										c0,14.89328-12.1062012,27.0101929-26.9862976,27.0101929H173.2885132z" class="colorc8c8ee svgShape"></path><path fill="#fefbf6" d="M327.2561951,410.191803c0,10.7928772-8.8265991,19.618988-19.6190186,19.618988H173.29039
										c-10.8318024,0-19.5993042-8.7676086-19.5993042-19.5989075v-306.178772
										c0-10.7929001,8.8265076-19.6189957,19.6190033-19.6189957h17.9086914
										c1.6513062,0,3.0078125,1.3563995,3.0078125,3.0073929v1.0424042c0,4.6976013,3.7939911,8.4919968,8.4924011,8.4919968
										h75.489502c4.6983948,0,8.512085-3.8135986,8.512085-8.5121994v-1.0222015
										c0-1.6509933,1.3565063-3.0073929,3.0078125-3.0073929h17.908783c10.7924194,0,19.6190186,8.8260956,19.6190186,19.6189957
										V410.191803z" class="colorf6f6fe svgShape"></path><path fill="#faf3ea" d="M274.2539978,87.500206c0,1.710495-1.3760071,3.106102-3.0863037,3.106102h-46.2773132
									c-1.6905975,0-3.0863953-1.395607-3.0863953-3.106102c0-1.70961,1.3957977-3.0860977,3.0863953-3.0860977h46.2773132
									C272.8779907,84.4141083,274.2539978,85.790596,274.2539978,87.500206z" class="coloreaeafa svgShape"></path><circle cx="217.484" cy="87.51" r="3.096" fill="#faf3ea" class="coloreaeafa svgShape"></circle><circle cx="209.789" cy="87.51" r="3.096" fill="#faf3ea" class="coloreaeafa svgShape"></circle><path fill="#243544" d="M175.5218811 116.8397064h-8.0063782c-.5699921 0-1.0321198-.4621124-1.0321198-1.0321121l0 0c0-.5699997.4621277-1.0320892 1.0321198-1.0320892h8.0063782c.5700073 0 1.0321045.4620895 1.0321045 1.0320892l0 0C176.5539856 116.377594 176.0918884 116.8397064 175.5218811 116.8397064zM182.6000824 111.3769073h-15.0845795c-.5699921 0-1.0321198-.4621048-1.0321198-1.0321045l0 0c0-.5699997.4621277-1.0320969 1.0321198-1.0320969h15.0845795c.5700073 0 1.0321045.4620972 1.0321045 1.0320969l0 0C183.6321869 110.9148026 183.1701813 111.3769073 182.6000824 111.3769073z" class="color121c7c svgShape"></path><path fill="#f5e9da" d="M315.7859802 160.5112c0 1.3367004-1.07901 2.4156036-2.4161987 2.4156036h-15.8200073c-1.3371887 0-2.4161987-1.0789032-2.4161987-2.4156036 0-1.3372955 1.07901-2.4162903 2.4161987-2.4162903h15.8200073C314.7069702 158.0949097 315.7859802 159.1739044 315.7859802 160.5112zM283.2895813 160.5112c0 1.3367004-1.0788879 2.4156036-2.4161987 2.4156036h-15.8198853c-1.3373108 0-2.4161987-1.0789032-2.4161987-2.4156036 0-1.3372955 1.0788879-2.4162903 2.4161987-2.4162903h15.8198853C282.2106934 158.0949097 283.2895813 159.1739044 283.2895813 160.5112zM250.7932892 160.5112c0 1.3367004-1.07901 2.4156036-2.4163055 2.4156036h-15.8199005c-1.337204 0-2.4161987-1.0789032-2.4161987-2.4156036 0-1.3372955 1.0789948-2.4162903 2.4161987-2.4162903h15.8199005C249.7142792 158.0949097 250.7932892 159.1739044 250.7932892 160.5112zM218.2968903 160.5112c0 1.3367004-1.0789032 2.4156036-2.4161987 2.4156036H200.060791c-1.3372803 0-2.4161987-1.0789032-2.4161987-2.4156036 0-1.3372955 1.0789185-2.4162903 2.4161987-2.4162903h15.8199005C217.2179871 158.0949097 218.2968903 159.1739044 218.2968903 160.5112zM185.8005829 160.5112c0 1.3367004-1.0789948 2.4156036-2.4162903 2.4156036h-15.8199005c-1.337204 0-2.4161987-1.0789032-2.4161987-2.4156036 0-1.3372955 1.0789948-2.4162903 2.4161987-2.4162903h15.8199005C184.7215881 158.0949097 185.8005829 159.1739044 185.8005829 160.5112z" class="colordadaf5 svgShape"></path><g fill="#000000" class="color000000 svgShape"><path fill="#fdfaf6" d="M318.4422913,291.789093v70.4399109c0,6.4400024-5.2104187,11.6601868-11.6499023,11.6601868
										h-51.6000977c-6.4302063,0-11.6499023-5.2201843-11.6499023-11.6601868V291.789093
										c0-6.4299927,5.219696-11.6499023,11.6499023-11.6499023h51.6000977
										C313.2318726,280.1391907,318.4422913,285.3591003,318.4422913,291.789093z" class="colorffffff svgShape"></path><path fill="#ff6881" d="M318.4422913,348.769104v13.4598999c0,6.4400024-5.2104187,11.6601868-11.6499023,11.6601868
										h-11.9804993v-13.4599915c0-6.4402161,5.2203064-11.6600952,11.6503906-11.6600952H318.4422913z" class="colorffa668 svgShape"></path><g fill="#000000" class="color000000 svgShape"><path fill="#fdfaf6" d="M237.3917847,291.789093v70.4399109c0,6.4400024-5.210495,11.6601868-11.6499023,11.6601868
										h-51.6000977c-6.430191,0-11.6499023-5.2201843-11.6499023-11.6601868V291.789093
										c0-6.4299927,5.2197113-11.6499023,11.6499023-11.6499023h51.6000977
										C232.1812897,280.1391907,237.3917847,285.3591003,237.3917847,291.789093z" class="colorffffff svgShape"></path><path fill="#ff6881" d="M237.3917847,348.769104v13.4598999c0,6.4400024-5.210495,11.6601868-11.6499023,11.6601868
										h-11.9804993v-13.4599915c0-6.4402161,5.2201996-11.6600952,11.6504059-11.6600952H237.3917847z" class="colorffa668 svgShape"></path></g><g fill="#000000" class="color000000 svgShape"><path fill="#fdfaf6" d="M318.4422913,188.5971985v70.4400024c0,6.4399109-5.2104187,11.6600952-11.6499023,11.6600952
										h-51.6000977c-6.4302063,0-11.6499023-5.2201843-11.6499023-11.6600952v-70.4400024
										c0-6.4299011,5.219696-11.6499023,11.6499023-11.6499023h51.6000977
										C313.2318726,176.9472961,318.4422913,182.1672974,318.4422913,188.5971985z" class="colorffffff svgShape"></path><path fill="#ff6881" d="M318.4422913,245.5771942v13.4600067c0,6.4399109-5.2104187,11.6600952-11.6499023,11.6600952
										h-11.9804993v-13.4598999c0-6.4402008,5.2203064-11.660202,11.6503906-11.660202H318.4422913z" class="colorffa668 svgShape"></path><g fill="#000000" class="color000000 svgShape"><path fill="#fdfaf6" d="M237.3917847,188.5971985v70.4400024c0,6.4399109-5.210495,11.6600952-11.6499023,11.6600952
										h-51.6000977c-6.430191,0-11.6499023-5.2201843-11.6499023-11.6600952v-70.4400024
										c0-6.4299011,5.2197113-11.6499023,11.6499023-11.6499023h51.6000977
										C232.1812897,176.9472961,237.3917847,182.1672974,237.3917847,188.5971985z" class="colorffffff svgShape"></path><path fill="#ff6881" d="M237.3917847,245.5771942v13.4600067c0,6.4399109-5.210495,11.6600952-11.6499023,11.6600952
										h-11.9804993v-13.4598999c0-6.4402008,5.2201996-11.660202,11.6504059-11.660202H237.3917847z" class="colorffa668 svgShape"></path></g></g></g><path fill="#fdfaf6" d="M311.6669922 258.1321106c0 .5700989-.4699097 1.030304-1.0400085 1.030304h-2.9700012v2.9799805c0 .5697937-.4598999 1.0298157-1.0299988 1.0298157-.5697937 0-1.0297852-.460022-1.0297852-1.0298157v-2.9799805h-2.9702148c-.5697937 0-1.0397949-.4602051-1.0397949-1.030304 0-.5698242.4700012-1.0297241 1.0397949-1.0297241h2.9702148v-2.9702911c0-.5697937.4599915-1.0296936 1.0297852-1.0296936.5700989 0 1.0299988.4598999 1.0299988 1.0296936v2.9702911h2.9700012C311.1970825 257.1023865 311.6669922 257.5622864 311.6669922 258.1321106zM230.6165009 258.1321106c0 .5700989-.469986 1.030304-1.0399933 1.030304h-2.9700012v2.9799805c0 .5697937-.4599915 1.0298157-1.0299988 1.0298157-.5699158 0-1.0298157-.460022-1.0298157-1.0298157v-2.9799805h-2.9701843c-.5699158 0-1.0398254-.4602051-1.0398254-1.030304 0-.5698242.4699097-1.0297241 1.0398254-1.0297241h2.9701843v-2.9702911c0-.5697937.4598999-1.0296936 1.0298157-1.0296936.5700073 0 1.0299988.4598999 1.0299988 1.0296936v2.9702911h2.9700012C230.1465149 257.1023865 230.6165009 257.5622864 230.6165009 258.1321106zM230.6165009 361.3240051c0 .5700989-.469986 1.030304-1.0399933 1.030304h-2.9700012v2.9798889c0 .5698853-.4599915 1.0297852-1.0299988 1.0297852-.5699158 0-1.0298157-.4598999-1.0298157-1.0297852v-2.9798889h-2.9701843c-.5699158 0-1.0398254-.4602051-1.0398254-1.030304 0-.5698242.4699097-1.0298157 1.0398254-1.0298157h2.9701843v-2.9701843c0-.5698242.4598999-1.0298157 1.0298157-1.0298157.5700073 0 1.0299988.4599915 1.0299988 1.0298157v2.9701843h2.9700012C230.1465149 360.2941895 230.6165009 360.7541809 230.6165009 361.3240051zM311.6669922 361.3240051c0 .5700989-.4699097 1.030304-1.0400085 1.030304h-2.9700012v2.9798889c0 .5698853-.4598999 1.0297852-1.0299988 1.0297852-.5697937 0-1.0297852-.4598999-1.0297852-1.0297852v-2.9798889h-2.9702148c-.5697937 0-1.0397949-.4602051-1.0397949-1.030304 0-.5698242.4700012-1.0298157 1.0397949-1.0298157h2.9702148v-2.9701843c0-.5698242.4599915-1.0298157 1.0297852-1.0298157.5700989 0 1.0299988.4599915 1.0299988 1.0298157v2.9701843h2.9700012C311.1970825 360.2941895 311.6669922 360.7541809 311.6669922 361.3240051z" class="colorffffff svgShape"></path><g fill="#000000" class="color000000 svgShape"><path fill="#fc8ea0" d="M210.7866821,190.4662018h0.2551117c-0.0111084-0.4548035-0.4326019-1.3204041-0.8324127-1.520401
									c-0.3993988-0.1996918-5.2825012-2.5746002-6.4809875-3.1515961
									c-1.1986084-0.577301-1.4425049-1.9866028-2.2748871-2.5635071c-0.621994-0.4311981-1.1793213-0.509491-1.5108185-0.5213013
									c-0.3314972,0.0118103-0.8887939,0.0901031-1.5104065,0.5213013
									c-0.8323975,0.5769043-1.0766907,1.9862061-2.2751923,2.5635071
									c-1.1985779,0.5769958-6.0816956,2.9519043-6.4810944,3.1515961
									c-0.399704,0.1999969-0.8213043,1.0655975-0.8323059,1.520401h0.2550049l1.5448914-0.7344971h18.5982056
									L210.7866821,190.4662018z M191.3615875,189.3903046l8.5811005-4.0798035l8.581192,4.0798035H191.3615875z" class="colorfc8e8e svgShape"></path><linearGradient id="SVGID_1_" x1="200.156" x2="198.994" y1="239.19" y2="211.134" gradientUnits="userSpaceOnUse"><stop offset="0" stop-color="#f7889a" class="stopColorf788a8 svgShape"></stop><stop offset="1" stop-color="#ff4d6a" class="stopColorff4d7b svgShape"></stop></linearGradient><path fill="url(#SVGID_1_)" d="M210.8173828,236.9024963c-1.4454956,4.1634979-8.195694,5.8095093-13.8460999,4.9521027
								c-1.3486023-0.2077026-2.6419983-0.5534973-3.7761993-1.0444946c-1.9918976-0.8646088-3.527298-2.1647034-4.128891-3.907608
								c-2.2824097-6.5495911,6.0031891-24.6353912,5.1940002-31.6829071
								c-0.0346069-0.29039-0.0830078-0.5530853-0.152298-0.7744904c-0.0137024-0.0554047-0.0343933-0.1105957-0.0483093-0.1589966
								c-1.6669006-4.6338043-2.6419983-14.2612-2.8563995-16.5641937
								c-0.0345917-0.3252106-0.0482941-0.5048065-0.0482941-0.5048065c1.134201-0.5397034,2.835495-0.9407043,4.6958923-1.300293
								l4.0875092,10.8789978l4.0942993-10.8789978c1.8604889,0.3595886,3.5689087,0.7605896,4.6960907,1.300293
								c0,0-0.0137939,0.1795959-0.0414886,0.5048065c-0.2212067,2.3029938-1.1965027,11.9303894-2.856308,16.5641937
								c-0.0207977,0.0484009-0.0415039,0.1035919-0.0553741,0.1589966
								c-0.0692291,0.221405-0.1106262,0.4841003-0.1452179,0.7744904
								C204.8142853,212.2671051,213.0997925,230.3598938,210.8173828,236.9024963z"></path><path fill="#549fd7" d="M205.7777863,204.4431c-0.0681915,0.2254028-0.1156006,0.4833984-0.1482849,0.7770081h-11.3703156
								c-0.0355988-0.2936096-0.0830994-0.5516052-0.1512909-0.7770081H205.7777863z" class="colorfb688f svgShape"></path><linearGradient id="SVGID_2_" x1="195.435" x2="195.435" y1="256.373" y2="252.173" gradientUnits="userSpaceOnUse"><stop offset="0" stop-color="#f7889a" class="stopColorf788a8 svgShape"></stop><stop offset="1" stop-color="#ff4d6a" class="stopColorff4d7b svgShape"></stop></linearGradient><path fill="url(#SVGID_2_)" d="M197.6213837,231.7845917c-0.1036987,3.3612061-0.3527985,6.7156067-0.6501007,10.0700073
							c-1.3486023-0.2077026-2.6419983-0.5534973-3.7761993-1.0444946c0.2766113-2.1370087,0.7055054-4.2602997,1.134201-6.3697968
							c1.0513-5.2215118,2.1094055-10.4502106,3.1607056-15.6788025
							C197.6213837,223.1047974,197.7526855,227.4481964,197.6213837,231.7845917z"></path></g><g fill="#000000" class="color000000 svgShape"><path fill="#fc8ea0" d="M294.4385071,194.6141052h0.3059998c-0.0133362-0.545517-0.5189209-1.5837097-0.9984131-1.8236084
								c-0.4790039-0.2395935-6.335907-3.088089-7.773407-3.7800903c-1.4375916-0.6923981-1.7301636-2.3827057-2.7286072-3.074707
								c-0.7458801-0.5171967-1.4143982-0.6109924-1.8119812-0.6251984
								c-0.397583,0.0142059-1.0661011,0.1080017-1.8115845,0.6251984c-0.9984436,0.6920013-1.2914429,2.382309-2.7290039,3.074707
								c-1.4375305,0.6920013-7.2944336,3.5404968-7.7734375,3.7800903
								c-0.4794922,0.2398987-0.9850769,1.2780914-0.9983826,1.8236084h0.3059082l1.8529968-0.8809967h22.3069153
								L294.4385071,194.6141052z M271.139679,193.3237l10.2924194-4.8934021l10.2924194,4.8934021H271.139679z" class="colorfc8e8e svgShape"></path><path fill="#ff6881" d="M296.6559753,206.0321045c-0.563385,0.2615967-1.394989-0.3218994-2.2836914-0.7745972
								c-0.6069031-0.3085022-1.2406921-0.5567017-1.8309021-0.4291992c-0.0603943,0.0133972-0.1174011,0.0703888-0.17099,0.17099
								c-1.2877197,2.3070984-1.3246155,26.9510956-0.7780151,28.9530029
								c0.5701294,2.0892029-3.7993774,2.4044037-6.0159912,2.0254974
								c-0.7980957-0.1374969-1.8208923-0.2548981-2.8570862-0.3119049
								c-1.5962219-0.0938873-3.2157898-0.0468903-4.0709229,0.2750092
								c-0.1374817,0.050293-0.2583008,0.1072998-0.3522034,0.1743927
								c-1.0763855,0.7478027-8.2928772,3.3432922-8.9265747,2.3943024
								c-0.6338196-0.9490051,0.4425964-29.0603943,0.4425964-29.0603943s-0.073822,0-0.2012024,0
								c-0.3119202-0.0032959-0.9490051-0.0133972-1.6464844-0.0838013
								c-1.3279114-0.1308136-2.8806152-0.4628143-2.8370056-1.3078003c0,0,0.2470093-13.3885956,6.2737732-18.2241058
								c1.2314148-0.9879913,3.0450134-0.6896973,3.9248962,0.6210022c1.5403442,2.2947083,4.1587219,5.678009,6.0136108,5.3404999
								c1.8917236-0.343689,4.5675049-3.6145935,6.091095-5.6800995c0.6848145-0.9284973,1.9947205-1.115799,2.9122925-0.4165039
								c1.4607239,1.113205,3.3865051,2.6933136,3.8447266,3.6077118
								C294.9457703,194.8251953,297.6049805,205.5895081,296.6559753,206.0321045z" class="colorffa668 svgShape"></path><path fill="#f45872" d="M283.0815125 231.6318054c-.1006165 1.394989-.2247314 2.7463989-.3622131 4.0340881-1.5962219-.0938873-3.2157898-.0468903-4.0709229.2750092.0502014-1.4654083.1341248-3.0147095.2514954-4.6175995.6572266-8.9669037 2.1260071-16.1699982 3.2796326-16.0861053C283.3363953 215.3209991 283.7388 222.661499 283.0815125 231.6318054zM270.8215942 201.8538055l-1.0227966 7.3807831-.1878052.2146149c-.3119202-.0032959-.9490051-.0133972-1.6464844-.0838013L270.8215942 201.8538055zM294.3722839 205.2575073c-.6069031-.3085022-1.2406921-.5567017-1.8309021-.4291992-.0603943.0133972-.1174011.0703888-.17099.17099.023407-2.5419006.0469055-5.0870972.0704041-7.628891C293.3930969 199.9122009 294.0402832 202.5646973 294.3722839 205.2575073z" class="colorf49758 svgShape"></path></g><g fill="#000000" class="color000000 svgShape"><path fill="#fc8ea0" d="M290.661377,297.997406h0.227417c-0.0099182-0.4055176-0.3857117-1.1773071-0.742218-1.3556213
									c-0.3559875-0.1781006-4.7096863-2.2954712-5.7782898-2.8098755
									c-1.0686035-0.5147095-1.2861938-1.7712097-2.0282898-2.285614
									c-0.5544739-0.384491-1.0514221-0.4541931-1.3470154-0.4646912
									c-0.2954712,0.010498-0.7923889,0.0802002-1.3465881,0.4646912c-0.7420959,0.5144043-0.960022,1.7709045-2.028595,2.285614
									c-1.0686035,0.5144043-5.4223022,2.6317749-5.7784119,2.8098755
									c-0.3564148,0.1783142-0.7322083,0.9501038-0.7420959,1.3556213h0.2273865l1.3774109-0.6549072h16.5817871
									L290.661377,297.997406z M273.3421936,297.038208l7.6507874-3.6376038l7.6509094,3.6376038H273.3421936z" class="colorfc8e8e svgShape"></path><path fill="#ff4f6c" d="M295.3303833,343.5910034c-1.0454102,1.2196045-0.8710938,2.3461914-2.3463135,1.1325073
								c-1.2543945-1.0338135-4.5821838,1.8234863-6.1965637,1.4750977
								c-0.284729-0.0639038-0.5112305-0.2207031-0.6679993-0.5227051c-0.394928-0.7550049-1.4403076,0.0755005-2.8399353,0.993103
								c-2.3055725,1.5099792-5.552063,3.2464905-8.3628845-1.5100098c0,0-0.0057983,0.0058899-0.0233154,0.017395h-0.0057983
								c-0.1452026,0.0581055-0.8246765,0.3485107-1.6260681,0.5634155c-1.27771,0.3309937-2.8399963,0.4472046-2.944519-0.9291992
								c-0.0115967-0.1625977-0.0463867-0.2904053-0.0986938-0.4008179
								c-0.2265015-0.4819946-0.8131104-0.487793-1.4519043-0.4064941
								c-1.3008728,0.1625977-2.8283997,0.6621094-2.0151978-1.8873901
								c1.3067017-4.0827942,5.3894043-19.1942139,5.6507874-24.6650085
								c0.2555237-5.4707031-1.7364807-12.1784973-1.7364807-12.1784973s4.6170044-4.9713135,1.1266785-8.9263
								c0.4237976-0.6199951,1.0142212-1.0490112,1.9107056-1.126709c0,0,2.0848999,3.90271,6.8587036,3.5599976
								c4.7796936-0.3483887,7.2131042-3.5599976,7.2131042-3.5599976c0.7489929-0.0664063,1.4367065,0.2701111,2.0848999,0.8652954
								c0,0-1.6550903,7.6428223,1.388092,9.8149109c0,0-2.0849915,7.9912109-1.219696,13.7233887
								C290.8991699,325.3551025,296.3699951,342.3771973,295.3303833,343.5910034z" class="colorff4f7c svgShape"></path><path fill="#e62b4a" d="M270.8048706 340.623291c-.1916809 1.2601929-.3890991 2.5263062-.5865784 3.786499-.2265015-.4819946-.8131104-.487793-1.4519043-.4064941l2.5668945-14.443512C271.9373779 333.2185974 271.3681946 336.9587097 270.8048706 340.623291zM275.4857788 341.3143921c-.1973877 1.2893066-.394989 2.5728149-.5924072 3.8619995h-.0057983c-.1452026.0581055-.8246765.3485107-1.6260681.5634155l2.7527771-15.4889221C276.6182861 333.9096985 276.0490723 337.6498108 275.4857788 341.3143921zM287.8501892 339.0145874c-.0115967 1.8875122-.0289917 3.8040161-.5169067 5.6276245-.1452026.5341797-.3251953 1.0510864-.5457764 1.5563965-.284729-.0639038-.5112305-.2207031-.6679993-.5227051-.394928-.7550049-1.4403076.0755005-2.8399353.993103 1.8410034-3.7982178 2.1953125-8.2409973 2.1837158-12.5038147-.0115967-4.8377075-.4238892-9.7451782.6619873-14.4667053C287.9315186 325.9299927 287.896698 332.5274963 287.8501892 339.0145874z" class="colorf44074 svgShape"></path></g><g fill="#000000" class="color000000 svgShape"><path fill="#fc8ea0" d="M217.5278931,304.468689h0.3687897c-0.0159912-0.6575012-0.6254883-1.9090881-1.2034912-2.1983032
								c-0.5774994-0.2887878-7.6379089-3.7226868-9.3709106-4.5568848c-1.7328949-0.8347168-2.0856934-2.872406-3.2892914-3.706604
								c-0.8992004-0.6233826-1.7050018-0.7366028-2.1844025-0.7536011c-0.4792938,0.0169983-1.28508,0.1302185-2.1837921,0.7536011
								c-1.2036133,0.834198-1.5569,2.8718872-3.2898102,3.706604c-1.7330017,0.834198-8.793396,4.2680969-9.3708954,4.5568848
								c-0.5780029,0.2892151-1.1875,1.540802-1.2035065,2.1983032h0.3688049l2.2337952-1.0619812h26.8908997
								L217.5278931,304.468689z M189.4411926,302.913208l12.4073944-5.8991089l12.4075012,5.8991089H189.4411926z" class="colorfc8e8e svgShape"></path><path fill="#388cc1" d="M193.3392944,324.450592c0.025589,0.0729065,0.0514984,0.150116,0.0727997,0.2272949
							c0.098587,0.3258972,0.1671906,0.6989136,0.218689,1.1234131c0.3638,3.1676025-0.5448914,8.9451904-1.8674011,15.6799927
							h20.171402c-1.3215942-6.7348938-2.2285919-12.5126038-1.8636017-15.6799927
							c0.0472107-0.4244995,0.115799-0.7975159,0.2144012-1.1234131c0.0214996-0.077179,0.0471039-0.1543884,0.0727081-0.2272949
							c2.4057922-6.6979065,3.8164978-20.6168823,4.1296997-23.9487c0.0426941-0.4759827,0.0641937-0.7290039,0.0641937-0.7290039
							c-1.6338043-0.7846985-4.0951996-1.3592834-6.7881012-1.8780823l-5.9174957,15.7284851l-5.9130859-15.7284851
							c-2.6928101,0.5187988-5.1543121,1.0933838-6.7879944,1.8780823c0,0,0.0213776,0.2530212,0.0643768,0.7290039
							C189.5185089,303.8337097,190.9335022,317.7526855,193.3392944,324.450592z" class="color4f5cd3 svgShape"></path><path fill="#3f92c7" d="M210.2855835,324.677887c-0.0986023,0.3258972-0.1672974,0.6989136-0.2144012,1.1234131h-16.4403992
							c-0.0513916-0.4244995-0.1199951-0.7975159-0.218689-1.1234131H210.2855835z" class="color3f47c7 svgShape"></path></g><linearGradient id="SVGID_3_" x1="182.671" x2="298.277" y1="401.837" y2="401.837" gradientUnits="userSpaceOnUse"><stop offset=".004" stop-color="#fcddb3" class="stopColorfcb3b3 svgShape"></stop><stop offset="1" stop-color="#fc8ea0" class="stopColorfc8e8e svgShape"></stop></linearGradient><path fill="url(#SVGID_3_)" d="M286.1165771,413.996582h-91.2858887c-6.7158051,0-12.1600952-5.4442749-12.1600952-12.1599731v-0.0001221
					c0-6.7157898,5.4442902-12.1600037,12.1600952-12.1600037h91.2858887c6.7158203,0,12.1600037,5.4442139,12.1600037,12.1600037
					v0.0001221C298.2765808,408.5523071,292.8323975,413.996582,286.1165771,413.996582z"></path><g fill="#000000" class="color000000 svgShape"><path fill="#fdfaf6" d="M208.7206879 404.8587036c0 .4306946-.3491821.7798767-.7799072.7798767-.4306946 0-.7798004-.3491821-.7798004-.7798767 0-.430603.3491058-.7798157.7798004-.7798157C208.3715057 404.0788879 208.7206879 404.4281006 208.7206879 404.8587036zM205.7945099 404.8587036c0 .4306946-.3492279.7798767-.7799225.7798767s-.7798004-.3491821-.7798004-.7798767c0-.430603.3491058-.7798157.7798004-.7798157S205.7945099 404.4281006 205.7945099 404.8587036z" class="colorffffff svgShape"></path><g fill="#000000" class="color000000 svgShape"><path fill="#fdfaf6" d="M209.2267914,403.4505005h-5.3921051c-0.2810059,0-0.525177-0.1917114-0.5917969-0.4644165
								l-1.4338074-5.8195801h-1.5385742c-0.3370056,0-0.609726-0.2727051-0.609726-0.6097107
								s0.2727203-0.6097107,0.609726-0.6097107h2.0160828c0.2810974,0,0.5251923,0.1917114,0.5919189,0.4644165
								l0.4178772,1.6933899h7.1963043c0.1929016,0,0.3750916,0.0917053,0.4906006,0.2477112
								c0.1142883,0.1547852,0.1487885,0.3559875,0.0916901,0.5405884l-1.2658997,4.1263123
								C209.7316895,403.2754822,209.4946899,403.4505005,209.2267914,403.4505005z M204.3121948,402.2311096h4.4644928
								l0.8907013-2.9067993h-6.0708771L204.3121948,402.2311096z" class="colorffffff svgShape"></path></g></g><g fill="#000000" class="color000000 svgShape"><path fill="#fcddb3" d="M383.3434143,160.5171051l1.3843994,0.0175934
						c0.349884,0.0045013,0.6488037,0.2359009,0.7612915,0.5671997c1.6431885,4.8408051,6.2240906,8.3235016,11.623291,8.3235016
						c6.7814026,0,12.2740173-5.4989014,12.2740173-12.2738037v-12.6492004c0-6.7750854-5.4926147-12.2739868-12.2740173-12.2739868
						c-3.3905945,0-6.4559021,1.3761902-8.6767883,3.5970917c-2.2207031,2.2208099-3.5971069,5.2924042-3.5971069,8.6768951
						v10.809906c-0.0187073,0.0249939-0.031189,0.0500946-0.037384,0.0751038
						c-0.4317017,1.5139008-1.057312,3.0402985-1.8204956,4.5166931
						C382.8367004,160.179306,383.0368958,160.51091,383.3434143,160.5171051z" class="colorfcb3b3 svgShape"></path><path fill="#549fd7" d="M449.0497131,235.0955048c0,0-0.0128174,0.0597992-0.055603,0.1129913
										c-0.8275146,2.1006012-12.4718018,31.0602112-20.6538086,40.6286926l-6.3754883-3.1549988
										c0.9187012-3.3918762,6.7438049-23.8954926,14.4578857-39.4033966l-10.5901794-38.7789917l0.036377-0.0242004
										c-0.8690796-3.9328003,1.4594116-7.9277954,5.4208984-9.0708008
										c4.1004028-1.2075043,8.3990173,1.1551971,9.6004028,5.2846985
										c0.0848083,0.3308105,0.139801,0.6551971,0.1947021,0.9795074l8.2073059,38.8262939l-0.0297852-0.0063934
										c0.1145935,0.3371887,0.1992798,0.6679993,0.2480774,1.0214996
										c0.059021,0.4501953,0.0881958,0.8939972,0.0281982,1.3170013
										C449.5270996,233.6054077,449.3663025,234.3513031,449.0497131,235.0955048z" class="colorfb688f svgShape"></path><g id="XMLID_61_" fill="#000000" class="color000000 svgShape"><g id="XMLID_122_" fill="#000000" class="color000000 svgShape"><path id="XMLID_57_" fill="#fc8ea0" d="M331.0940857,197.5695038c0,0-3.5410156-0.1094055-4.6582947,0.2583923
											c-1.117218,0.3678131-3.0702209,1.4995117-3.4375,1.7136993c-0.3673096,0.2142029-1.25,1.5180054-1.7577209,1.9878082
											c-0.5076904,0.4698029-1.6126709,1.1938934-1.1459961,1.7830963c0,0,1.3413086,1.1374054,2.6058044-0.2270966
											c0,0,1.115509-0.8379059,1.4721985-1.5155029c0,0,1.269928-0.204895,2.4060059-0.7458038
											c0.1633911-0.0777893,0.3441162-0.1094971,0.5249329-0.1007996
											c0.6403809,0.0310059,2.1470642,0.1052094,2.754364,0.1457062l-2.834198,0.1136932
											c-0.2101746,0.0084076-0.4159851,0.0584106-0.6070862,0.1462097
											c-0.5346069,0.2456818-1.6390076,0.7756958-2.018219,1.1266937
											c-0.507782,0.4698029-0.9256897,0.832901-1.2153931,1.360199
											c-0.2897034,0.5272064-1.5430908,2.2409058-1.6123962,2.7644043
											c-0.0692139,0.5234985,0.7515869,1.1304932,1.4139099,0.7767944
											c0.662384-0.3536987,1.3928833-0.8882904,1.8797913-2.3990936c0,0,1.0480957-0.2041016,1.7857056-0.9219971
											c0.7375793-0.7180023-0.0674744,1.0236816-0.0674744,1.0236816l-1.0161438,0.3802185
											c0,0-1.6575012,0.8026886-1.5397949,1.5537872c0.1177063,0.7511139,1.3110046,0.9075012,2.4259949,0.2409058
											c1.1150208-0.6665955,4.0740051-1.1683044,4.0740051-1.1683044l2.4923096-0.902298l4.2651062-1.1757965
											c0,0,0.1846924-2.0576019,0.1165771-2.0950928C337.3325195,201.6555939,331.0940857,197.5695038,331.0940857,197.5695038z
											" class="colorfc8e8e svgShape"></path><path id="XMLID_56_" fill="#fcddb3" d="M354.8640747,209.7485046c0,0-4.8085022-4.4096069-7.6203918-5.9544983
											c-2.3724976-1.3036041-5.7755127-2.9954987-7.7065125-4.9004974
											c-0.8753967-0.8636017-1.9075012-1.5521088-3.0179749-2.080307
											c-0.6179199-0.2937927-1.3299255-0.6334076-2.0783997-0.9920044
											c-1.8964233-0.9086914-3.8181152-2.2823944-4.46521-2.6378937
											c-0.6470032-0.3554993-4.6805115-1.1912994-5.4397888-1.4562073
											c-0.7592163-0.2648926-2.8557129-0.4807892-3.2210083-0.213501
											c-0.3652039,0.2673035-0.5563965,1.4103088,0.8947144,2.1763
											c1.4510193,0.7661133,2.6010742,0.7739105,2.6010742,0.7739105s2.3833008,1.3406982,3.6916199,1.6850891
											c0,0,2.5547791,1.6533051,3.0354004,2.1981049c0.4806824,0.5449066,3.1737976,1.6813965,3.3532715,2.9447021
											c0.1794128,1.2633972-1.8075867,1.1699982-2.9305725,1.0938873
											c-1.1229248-0.0761871-2.3480225-0.0420837-3.2184143,0.1036072
											c-0.8704834,0.1457977-1.836792,0.2388-2.1495972,0.7324982c-0.3128967,0.4937134-0.34729,2.2220001,1.0776062,2.5057068
											s4.4468079-0.2192078,6.2937012,0.9618988c1.8469849,1.1811981,5.900177,3.1168976,8.775177,3.032608
											c2.8751221-0.0844116,6.3507996,7.0666809,6.3507996,7.0666809L354.8640747,209.7485046z" class="colorfcb3b3 svgShape"></path></g></g><path fill="#fcddb3" d="M412.5039978,408.4007874h-7.7399902
												c-0.7858887,8.9146118-3.0486145,19.3012085-8.3263855,19.8887024
												c-1.9362183,1.899292,17.0944824,8.9270935,18.3101807,1.677002
												C415.7742004,423.8449097,411.3150024,425.5694885,412.5039978,408.4007874z" class="colorfcb3b3 svgShape"></path><path fill="#243544" d="M415.2394104,428.9494934v5.1673889c0,0.581604-0.4714966,1.0531006-1.0531006,1.0531006
												h-26.3851929c-0.7113037,0-1.2322083-0.6869812-1.0097961-1.3624878
												c0.7389832-2.2442932,3.096283-6.3988953,10.348175-5.6355896c0,0,2.0735168,3.7149963,8.8988037,2.3327026
												C412.8634949,429.1222839,415.023407,427.8262939,415.2394104,428.9494934z" class="color121c7c svgShape"></path><path fill="#fcddb3" d="M442.0354004,408.4007874h-7.7400818
												c-0.7857971,8.9146118-3.0485229,19.3012085-8.3263245,19.8887024
												c-1.9361877,1.899292,17.0945129,8.9270935,18.3102112,1.677002
												C445.305603,423.8449097,440.846405,425.5694885,442.0354004,408.4007874z" class="colorfcb3b3 svgShape"></path><path fill="#243544" d="M444.770813,428.9494934v5.1673889c0,0.581604-0.4714966,1.0531006-1.0531006,1.0531006
												h-26.3851929c-0.7113037,0-1.2322083-0.6869812-1.0097961-1.3624878
												c0.7389832-2.2442932,3.096283-6.3988953,10.348175-5.6355896c0,0,2.0735168,3.7149963,8.8987122,2.3327026
												C442.3948975,429.1222839,444.5548096,427.8262939,444.770813,428.9494934z" class="color121c7c svgShape"></path><path fill="#388cc1" d="M441.410614,412.0308838h-11.2700195c0,0-12.8099976-62.3999939-15.3400879-69.2098999
											c-2.519989-6.8100891-6.6098022-24.8499756-6.6098022-24.8499756s-0.8702087,4.25-1.6999817,9.75
											c-0.9101257,6.3399963-1.7402039,14.3699036-1,19.5799866c1.3598938,9.7199097,7.3798828,15.7600098,7.5797729,24.1098938
											c0.1703186,7.2218018,1.0706177,32.4924927,1.3003235,39.0549011
											c0.0299988,0.8580017-0.6576233,1.5652161-1.5161133,1.5652161h-8.4699097
											c-0.7225952,0-1.3429871-0.504303-1.4827881-1.2131958c-1.4157104-7.1765137-8.7312927-44.3517151-13.0433044-64.8033142
											c-1.2255859-5.8131104-2.1220093-11.6816101-2.8502808-17.5776062
											c-0.2168274-1.755188-0.4764099-3.5073853-0.737915-5.2558899
											c-1.3197937-8.8301086-2.6299133-17.6600952-3.9500122-26.4899902
											c-0.6499023-4.4100952-1.3099976-8.8301086-1.3497925-13.2901001
											c-0.0700989-7.8000183,1.7397156-15.4799194,3.9099121-22.9699097
											c0.746582-2.5466919,1.5332031-5.1822968,2.0220947-7.8208008
											c0.4693909-2.5334015,1.065094-5.0475006,2.0159912-7.4420013
											c1.362915-3.4322968,2.2212219-6.8840942,1.7820129-9.5872955c13.0897827-3.7299957,25.0697937-3.9499969,35.75,0
											c0,0-1.3601074,1.3600922,0.9698792,6.8099976l0.0701294,0.170105
											c7.2299805,16.8699951,9.8798828,35.349884,7.6899719,53.579895
											c-1.25,10.3301086-2.4301758,20.4100952-2.8100891,24.3601074c-0.8700867,9.3399048-4.5600891,18.4400024,0,30.2999878
											C436.9507141,362.6608887,443.5605164,388.3009949,441.410614,412.0308838z" class="color4f5cd3 svgShape"></path><path fill="#3f92c7" d="M406.4926147,327.7247925c0.8289795-5.5072021,1.6974792-9.7510071,1.6974792-9.7510071
											s4.0860291,18.0409241,6.6125183,24.8512268c2.5267029,6.8103943,15.3374023,69.2053833,15.3374023,69.2053833h2.2501831
											c0.2171021-10.0863953-1.9541016-20.232605-4.1056824-30.1810913l-10.0078125-45.8345947
											c-3.8490906-17.6264038-7.6980896-35.2740173-11.5473022-52.9206238
											C405.683197,297.9580994,404.6371155,312.9985962,406.4926147,327.7247925z" class="color3f47c7 svgShape"></path><g fill="#000000" class="color000000 svgShape"><linearGradient id="SVGID_4_" x1="368.032" x2="368.367" y1="185.774" y2="199.533" gradientTransform="rotate(-1.341 -553.583 -1503.704)" gradientUnits="userSpaceOnUse"><stop offset=".004" stop-color="#fcddb3" class="stopColorfcb3b3 svgShape"></stop><stop offset="1" stop-color="#fc8ea0" class="stopColorfc8e8e svgShape"></stop></linearGradient><path fill="url(#SVGID_4_)" d="M392.2774048,184.3710022c1.6853943,7.0368958,11.7416992,14.4042969,19.9251099,14.2126923
												c8.748291-0.2046967,12.0709839-8.9971008,11.9942017-16.4419861
												c-1.2567139-0.0298004-2.631012-0.0349121-4.0892944-0.0191193
												c-3.660614,0.0398102-6.7277222-2.7911835-6.8963013-6.4480896
												c-0.0036011-0.0776978-0.007019-0.155899-0.0103149-0.2346954
												c-0.415802-10.2640076-12.6619873-8.7494049-12.6619873-8.7494049s0.1807861,2.8800049,0.5177002,6.4857025
												c0.5046997,5.402298-3.256897,10.2794952-8.6097107,11.1667938L392.2774048,184.3710022z"></path><path fill="#549fd7" d="M383.7714233,199.1355896v0.4888153
															c0.0914917,4.4853973,0.5493774,9.3076019,1.4953918,13.1835938
															c0.0914917,0.4888,0.2442017,0.9461975,0.3661804,1.3739014
															c0.0917053,0.3054962,0.1832275,0.5484009,0.2443237,0.8538971
															c0.183075,0.4277039,0.3356018,0.8554077,0.4881897,1.251709
															c0.1831055,0.3963928,0.3356018,0.7630005,0.5492859,1.0670013
															c0.213623,0.4276886,0.4273071,0.7942963,0.7020264,1.1295929
															c4.8218994,6.1349945,3.1738892,17.0296936,3.1738892,17.0296936
															c0.6409912,0.1520081,1.2817993,0.3054047,1.8922119,0.4574127
															c22.7669983,5.1575012,33.7658997-0.3888092,33.7658997-0.3888092
															c-0.3052063-0.6094971-0.1342163-6.8742981,0.1097717-10.8723907
															c0.1222229-2.0743103,0.9766235-4.1501007,2.6856995-5.3706055
															c3.0215149-2.0758057,3.9370117-8.0260925,4.1507263-12.1777039
															c0.183075-2.5019989,0.0914001-4.3631897,0.0914001-4.3631897s2.0143738-17.2130127-2.1972046-19.7150116
															c-0.9157104-0.5200958-3.5708008-0.825592-7.0804138-0.9462891
															c-8.7893982-0.2146149-23.2857971,0.7630005-31.953186,2.2575989
															c-3.9369202,0.6407928-6.6226196,1.4037933-7.1412964,2.197998
															C384.2597046,188.0263977,383.7104187,193.2449951,383.7714233,199.1355896z" class="colorfb688f svgShape"></path><path fill="#ff4f6c" d="M383.7714233,199.1355896v0.4888153c0.0914917,4.4853973,0.5493774,9.3076019,1.4953918,13.1835938
											c0.0914917,0.4888,0.2442017,0.9461975,0.3661804,1.3739014c0.0917053,0.3054962,0.1832275,0.5484009,0.2443237,0.8538971
											c0.183075,0.4277039,0.3356018,0.8554077,0.4881897,1.251709
											c0.1831055,0.3963928,0.3356018,0.7630005,0.5492859,1.0670013
											c0.213623,0.4276886,0.4273071,0.7942963,0.7020264,1.1295929
											c4.8218994,6.1349945,3.1738892,17.0296936,3.1738892,17.0296936
											c0.6409912,0.1520081,1.2817993,0.3054047,1.8922119,0.4574127
											c4.2115784-6.1946106,4.6693726-14.7393036,0.976593-21.20961
											c-1.5259094-2.6853027-3.6622925-5.0054932-5.4324036-7.5074921
											C386.4266052,204.7207947,384.9617004,201.9743958,383.7714233,199.1355896z" class="colorff4f7c svgShape"></path></g><g fill="#000000" class="color000000 svgShape"><path fill="#549fd7" d="M388.6477966,218.2819977c0,0-1.2762756,5.5321045-3.4035034,10.9333038
											c-1.9994812,5.1062012-4.7223816,10.1687012-7.9131775,10.4241943
											c-10.7640381,0.8081055-29.2941284-23.6266937-29.2941284-23.6266937l5.3179932-7.6572113l19.5487061,16.6047058
											c0,0,7.022522-39.0957031,12.5107117-38.9689941c0.2552185,0,0.510498,0.0415039,0.7658081,0.1266937
											c0.4681091,0.1287994,0.8508911,0.3843079,1.1913147,0.7666016
											c1.4466858,1.4042969,2.2124023,4.4663086,2.5102844,8.126709
											C390.7325134,204.5402069,388.6477966,218.2819977,388.6477966,218.2819977z" class="colorfb688f svgShape"></path></g><path fill="#2e77a5" d="M418.9456177,130.2167969c3.4603882,1.7693024,6.8553772,4.2746124,8.1452942,7.9427948
										c1.4892883,4.2592163-0.1924133,9.0173187,0.3496094,13.4507141
										c0.0750732,0.6064911,0.1880798,1.2043915,0.3600769,1.7935028
										c1.1873169,4.1324921,4.7742004,7.0159912,7.6296082,10.2283936
										c6.1835938,6.9508972,9.3432922,16.5032043,8.53479,25.7749939
										c-0.8050842,9.1324005-5.4502869,17.8721008-12.5744934,23.6416016
										c-0.1047974,0.0848999-0.2096863,0.1697998-0.3144836,0.2546997
										c-4.7687988,3.7769012-10.6430054,6.259903-16.7177124,6.5245972
										c-6.074585,0.264801-12.3102112-1.8087921-16.6784973-6.0345917
										c-4.3723145-4.2342072-6.6560974-10.6533966-5.4573975-16.6141968
										c0.8233948-4.1062012,3.1398926-7.7171021,4.901001-11.5167084
										c1.7652893-3.7911987,2.9833069-8.2032013,1.5001831-12.1166992
										c-1.6864014-4.4499969-6.6407776-7.6333008-6.6766968-12.3920898
										c-0.0101013-1.0199127,0.2224121-2.0097046,0.5603943-2.9791107
										c0.8266296-2.4432983,2.2885132-4.7910004,2.1703186-7.3679962
										c-0.1574097-3.550293-8.0997925-7.1336975-9.5979919-10.3582916
										c-1.453125-3.1255035,0.3802795-7.1367035,2.2137756-8.2200012c2.0903015-1.236908,4.9444275-2.7677002,7.823822-3.8156128
										c2.0778809-0.7562027,4.283783-1.0844955,6.4949036-1.1129913
										c3.0439758-0.0393982,8.3848877-0.3991013,9.7734985-0.0174026
										C413.994812,128.0091095,416.5296021,128.9851074,418.9456177,130.2167969z" class="color2e34a5 svgShape"></path><ellipse cx="387.571" cy="151.767" fill="#2e77a5" rx=".82" ry="1.316" class="color2e34a5 svgShape"></ellipse></g></g><g fill="#000000" class="color000000 svgShape"><path fill="#fefbf6" d="M112.2290878 284.5191956v14.5869141c0 1.8976746-1.5399017 3.4376831-3.4375763 3.4376831H64.0500946c-1.8975868 0-3.4377022-1.5400085-3.4377022-3.4376831v-14.5869141c0-1.8977051 1.5401154-3.4318848 3.4377022-3.4318848h44.7414169C110.6891861 281.0873108 112.2290878 282.6214905 112.2290878 284.5191956zM122.1210861 257.1679077v14.5870056c0 1.897583-1.5399933 3.4375916-3.4375763 3.4375916h-21.531517c-1.8977051 0-3.437706-1.5400085-3.437706-3.4375916v-14.5870056c0-1.8976135 1.5400009-3.4319 3.437706-3.4319h21.531517C120.5810928 253.7360077 122.1210861 255.2702942 122.1210861 257.1679077zM40.9728928 216.0718079v-14.5868988c0-1.8977051 1.5399971-3.4319 3.4376984-3.4319h44.7413025c1.8976135 0 3.4376144 1.5341949 3.4376144 3.4319v14.5868988c0 1.8976898-1.5400009 3.4376984-3.4376144 3.4376984H44.4105911C42.5128899 219.5095062 40.9728928 217.9694977 40.9728928 216.0718079zM126.4355087 202.3269958v14.5868988c0 1.8976135-1.5400009 3.4376984-3.4377213 3.4376984h-21.5372009c-1.8976974 0-3.4376984-1.5400848-3.4376984-3.4376984v-14.5868988c0-1.8976898 1.5400009-3.4319 3.4376984-3.4319h21.5372009C124.8955078 198.8950958 126.4355087 200.429306 126.4355087 202.3269958zM131.7245941 173.1531067v14.5868988c0 1.897583-1.5400085 3.4376984-3.4376984 3.4376984H83.5455093c-1.897522 0-3.4376221-1.5401154-3.4376221-3.4376984v-14.5868988c0-1.8977051 1.5401001-3.4319 3.4376221-3.4319h44.7413864C130.1845856 169.7212067 131.7245941 171.2554016 131.7245941 173.1531067zM68.3990936 226.3847961h44.7414169c1.8976822 0 3.4375763 1.5342102 3.4375763 3.4319v14.5868988c0 1.8977051-1.5398941 3.4376984-3.4375763 3.4376984H68.3990936c-1.8977051 0-3.437706-1.5399933-3.437706-3.4376984v-14.5868988C64.9613876 227.9190063 66.5013885 226.3847961 68.3990936 226.3847961zM84.2435074 275.1925049H39.5020905c-1.8976974 0-3.4377975-1.5400085-3.4377975-3.4375916v-14.5870056c0-1.8976135 1.5401001-3.4319 3.4377975-3.4319h44.7414169c1.8974838 0 3.4376831 1.5342865 3.4376831 3.4319v14.5870056C87.6811905 273.6524963 86.1409912 275.1925049 84.2435074 275.1925049z" class="colorf6f6fe svgShape"></path></g></svg>