<svg id="SvgjsSvg1001" width="360" height="360" xmlns="http://www.w3.org/2000/svg" version="1.1" xmlns:xlink="http://www.w3.org/1999/xlink" xmlns:svgjs="http://svgjs.com/svgjs"><defs id="SvgjsDefs1002"></defs><g id="SvgjsG1008" transform="matrix(1,0,0,1,0,0)"><svg xmlns="http://www.w3.org/2000/svg" id="Layer_1" x="0" y="0" enable-background="new 0 0 515 515" version="1.1" viewBox="0 0 515 515" xml:space="preserve" width="360" height="360"><path fill="#fcddb3" d="M321.8070068 82.4853134c.180603-.5150986.1871948-1.0345993-.2442932-1.4201965-.3997192-.3572006-.8953247-.4698029-1.4026184-.3056107-.002594-.3692932.0372925-.710289-.0180054-1.0350876-.065979-.3878021-.325592-.6078033-.7460022-.653801-.48349-.052803-.8967896-.0573044-1.3773804.2074966-.6932983.382103-1.204895.9059982-1.7466125 1.450798-.6822815.6861038-1.2254028 1.4345932-1.6226807 2.3125-.1191101.2633057-.384613.4603043-.6071167.7150955-.3450012-.4460907-.7182007-.7653961-.9589844-1.2518921-.5103149-1.0309982-1.1351013-2.0113983-2.0853271-2.7173004-.5682983-.4223022-1.1959839-.731102-1.9204712-.7385025-.2901001-.0028992-.6187134.0608063-.7210083.3959045-.0901184.294899.0435791.5450974.2995911.7241974.174408.1220016.3270874.2895889.5177002.3710022.6173096.2636948.7693176.8749008 1.061615 1.3758011.6182861 1.0596008 1.0234985 2.1962967 1.2006836 3.4160004.0856934.5897903.4142151 1.0677872.7314148 1.5696945.6091919.9636993 1.1580811 1.9720001 1.6424866 3.0037994.1400146.2982025.0704956.7791061-.0653992 1.1094055-1.3483887 3.2762985-3.0750122 6.3647003-4.7661133 9.4701996-.2071838.3805008-.3942871.7719955-.5922852 1.161499 2.300293 1.1692963 4.5740051 2.3250961 6.8995972 3.5073013.1419983-.3399048.3049927-.6871109.4335022-1.0466003.3283997-.9188004.64151-1.8430023.9603882-2.7652054.4284973-1.2388.9125061-2.4618988 1.2693176-3.7210007.355896-1.2558975.8941956-2.4149933 1.5622864-3.520195.2181091-.3608017.496521-.697113.7976074-.9934998.9176941-.9036102 1.5556946-2.0019989 2.2044067-3.0923004.4656982-.7826004.9014893-1.583313 1.3364868-2.3836975.0924072-.1702042.1304932-.3718033.1815186-.5622025.0950928-.3552017.2119751-.7081985.264801-1.0701981.1069031-.7331009-.0858154-1.0814056-.7333984-1.4353027-.1166077-.0636978-.2367249-.1210022-.3480225-.1774979C323.394104 82.9280167 323.2557983 82.7377167 321.8070068 82.4853134zM175.4378967 78.5331192c-.0943909-.5376129-.0164032-1.0513.4721069-1.3616104.4524994-.2873917.9597931-.317894 1.4335938-.0732956.0626068-.3638992.0787964-.7068939.186203-1.0183945.1282043-.3719025.420105-.5468063.842392-.5237045.485611.0265045.8942108.0893021 1.3253021.4288025.6219025.4897995 1.0415039 1.0898972 1.4873047 1.7155914.5615997.7879105.975708 1.6148071 1.2248993 2.5457077.074707.2790985.3045959.5167007.4826965.8042908.4129028-.3840027.8330994-.6383896 1.1498108-1.0791931.6711884-.9342957 1.4471893-1.7998962 2.499588-2.3418961.6294098-.3242035 1.2991028-.5268021 2.0151062-.4161987.2866974.0442886.6004944.1605988.6470032.5078964.0408936.305603-.1316986.5307999-.4134979.665802-.1919098.0919952-.3699036.2324982-.571106.2818985-.6519928.1596909-.9013977.737999-1.2713013 1.1846924-.7823944.9449081-1.3670959 2.0006104-1.7404022 3.175209-.1804962.5680008-.5823975.9861984-.9769897 1.4297867-.7578125.8517151-1.463501 1.757309-2.1092987 2.6966095-.186615.2713928-.1963043.7572021-.1159058 1.1052017.7973938 3.4521027 1.9985962 6.7801895 3.1620026 10.1194992.1425018.4091034.2634888.825798.395401 1.2423019-2.4598083.7794952-4.8912048 1.5499954-7.3782043 2.3381958-.0848083-.3584976-.1891937-.7276001-.2575073-1.1031952-.1744995-.9599991-.3330994-1.9227982-.4977875-2.884613-.2212067-1.2919998-.4998016-2.5774918-.6470032-3.8779984-.1468964-1.2969971-.4894104-2.5281906-.9687958-3.7273865-.1565094-.3915024-.3765106-.7685013-.625412-1.1100006-.7584991-1.040802-1.2092896-2.2284012-1.6719971-3.4097061-.3321991-.8479996-.631897-1.7089081-.9308929-2.569397-.0635071-.1828995-.0682983-.3880997-.0876007-.584198-.0361023-.3658981-.0940094-.7333145-.087204-1.098999.0137024-.7406998.2606049-1.0531006.9571991-1.2969055.1253967-.0438995.2532043-.0808945.3721008-.1185989C173.7998962 78.7117157 173.9673004 78.5465088 175.4378967 78.5331192z" class="colorfcb3b3 svgShape"></path><path fill="#faf3ea" d="M419.211792,160.4568176v40.2616882c0,2.4989014-2.0258789,4.5248108-4.5354004,4.5248108h-76.717804
						l-13.7189026,16.3822937v-16.3822937h-9.0189819c-2.4989014,0-4.5350952-2.0259094-4.5350952-4.5248108v-40.2616882
						c0-2.509201,2.0361938-4.5351105,4.5350952-4.5351105h99.4556885
						C417.1859131,155.9217072,419.211792,157.9476166,419.211792,160.4568176z" class="coloreaeafa svgShape"></path><path fill="#fdfaf6" d="M383.6805115 166.8327179c0 .4008942-.1632996.7646027-.4230042 1.0243988-.2599182.2597961-.6235962.4230042-1.0245056.4230042h-59.3981934c-.7943115 0-1.4400024-.6457062-1.4400024-1.447403 0-.3934021.1632996-.7572174.4231873-1.0169067.2597046-.2597961.6234131-.4230957 1.0168152-.4230957h59.3981934C383.03479 165.3927155 383.6805115 166.0384064 383.6805115 166.8327179zM383.6805115 175.6076202c0 .4008789-.1632996.7645874-.4230042 1.0243988-.2599182.2596893-.6235962.4229889-1.0245056.4229889h-59.3981934c-.7943115 0-1.4400024-.6456909-1.4400024-1.4473877 0-.3934021.1632996-.7572021.4231873-1.0169067.2597046-.2597961.6234131-.4230957 1.0168152-.4230957h59.3981934C383.03479 174.1676178 383.6805115 174.8133087 383.6805115 175.6076202zM383.6805115 184.3825073c0 .4008026-.1632996.7646027-.4230042 1.0243073-.2599182.2597961-.6235962.4230957-1.0245056.4230957h-59.3981934c-.7943115 0-1.4400024-.6456909-1.4400024-1.447403 0-.3934937.1632996-.7571869.4231873-1.0169983.2597046-.2596893.6234131-.4230042 1.0168152-.4230042h59.3981934C383.03479 182.9425049 383.6805115 183.5882111 383.6805115 184.3825073zM353.9888 193.1574097c0 .4008026-.1632996.7644958-.4230042 1.0243073-.2598877.2597961-.6235962.4230957-1.0245056.4230957h-29.7064819c-.7943115 0-1.4400024-.6457062-1.4400024-1.447403 0-.3934937.1632996-.7572021.4231873-1.0169983.2597046-.2597961.6234131-.4230042 1.0168152-.4230042h29.7064819C353.3431091 191.7174072 353.9888 192.3631134 353.9888 193.1574097z" class="colorfff svgShape"></path><linearGradient id="SVGID_1_" x1="391.598" x2="410.129" y1="176.102" y2="176.102" gradientUnits="userSpaceOnUse"><stop offset=".004" stop-color="#fcddb3" class="stopColorfcb3b3 svgShape"></stop><stop offset="1" stop-color="#fc8ea0" class="stopColorfc8e8e svgShape"></stop></linearGradient><circle cx="400.863" cy="176.102" r="9.266" fill="url(#SVGID_1_)"></circle><path fill="#fdfaf6" d="M404.1523132 178.7872162c-.4017029 1.4365997-1.7149048 2.5023956-3.2902222 2.5023956-1.5605774 0-2.8888855-1.0657959-3.2904968-2.5023956-.1081848-.3862.2010193-.7723083.6022949-.7723083h5.3757019C403.9667053 178.0149078 404.260498 178.4010162 404.1523132 178.7872162zM398.4094849 173.3751068c0 .6789093-.550293 1.2292023-1.229187 1.2292023-.6788025 0-1.2290955-.550293-1.2290955-1.2292023 0-.6787872.550293-1.2290955 1.2290955-1.2290955C397.8591919 172.1460114 398.4094849 172.6963196 398.4094849 173.3751068zM405.7756958 173.3751068c0 .6789093-.550293 1.2292023-1.2290955 1.2292023-.678894 0-1.229187-.550293-1.229187-1.2292023 0-.6787872.550293-1.2290955 1.229187-1.2290955C405.2254028 172.1460114 405.7756958 172.6963196 405.7756958 173.3751068z" class="colorfff svgShape"></path><g fill="#000000" class="color000 svgShape"><path fill="#faf3ea" d="M83.6299973,186.6110077v19.6938019c0,2.4989014,2.0259018,4.5247955,4.5353012,4.5247955h76.7178955
							l13.718811,12.2687073v-12.2687073h9.0190887c2.4989014,0,4.5351105-2.0258942,4.5351105-4.5247955v-19.6938019
							c0-2.509201-2.0362091-4.535202-4.5351105-4.535202H88.1652985
							C85.655899,182.0758057,83.6299973,184.1018066,83.6299973,186.6110077z" class="coloreaeafa svgShape"></path><path fill="#f45872" d="M143.9624939 193.9015045l-3.3710938 2.4453125c-.1307068.0948029-.1781006.2610931-.1307068.4152985l1.2821045 3.9528046c.1188049.3442993-.272995.6291962-.5578918.4155884l-3.3712006-2.4452972c-.1304016-.0950928-.2967987-.0950928-.4272003 0l-3.3712006 2.4452972c-.2849121.2136078-.676712-.0712891-.5579071-.4155884l1.2821045-3.9528046c.0473938-.1542053 0-.3204956-.1307068-.4152985l-3.3710938-2.4453125c-.2848969-.2016907-.142395-.6644897.2136993-.6644897h4.1665039c.1540985 0 .2966919-.095108.344101-.2495117l1.2937927-3.9647827c.1069031-.3321075.581604-.3321075.6885986 0l1.293808 3.9647827c.0473022.1544037.1898956.2495117.344101.2495117h4.1663971C144.1049042 193.2370148 144.2472992 193.6998138 143.9624939 193.9015045zM104.6248016 193.9015045l-3.3711014 2.4453125c-.1306.0948029-.1781006.2610931-.1306.4152985l1.2818985 3.9528046c.1186981.3442993-.2728958.6291962-.5578003.4155884l-3.3711014-2.4452972c-.1306992-.0950928-.2967987-.0950928-.4274979 0l-3.370903 2.4452972c-.284996.2136078-.6766968-.0712891-.5579987-.4155884l1.2819061-3.9528046c.0475998-.1542053 0-.3204956-.1304016-.4152985l-3.3712006-2.4453125c-.2849045-.2016907-.1424026-.6644897.2136002-.6644897h4.1663971c.1545029 0 .2967987-.095108.3442993-.2495117l1.2938995-3.9647827c.1067047-.3321075.5817032-.3321075.6884995 0l1.2938004 3.9647827c.0475006.1544037.1899033.2495117.3442001.2495117h4.1665039C104.7673035 193.2370148 104.9095993 193.6998138 104.6248016 193.9015045zM124.2937012 193.9015045l-3.3712006 2.4453125c-.1305008.0948029-.1780014.2610931-.1305008.4152985l1.2817993 3.9528046c.1187973.3442993-.2730026.6291962-.5578003.4155884l-3.3711014-2.4452972c-.1306-.0950928-.2967987-.0950928-.4272995 0l-3.3712997 2.4452972c-.2847977.2136078-.6763-.0712891-.5578003-.4155884l1.2821045-3.9528046c.0475006-.1542053 0-.3204956-.1306992-.4152985l-3.3710022-2.4453125c-.2849045-.2016907-.142601-.6644897.2136002-.6644897h4.1663971c.1544037 0 .2967987-.095108.3442993-.2495117l1.2938004-3.9647827c.1068039-.3321075.581604-.3321075.6884003 0l1.2939987 3.9647827c.0474014.1544037.1898041.2495117.344101.2495117h4.1665039C124.435997 193.2370148 124.578598 193.6998138 124.2937012 193.9015045zM160.2602997 196.346817c-.1307068.0948029-.1781921.2610931-.1307068.4152985l1.2821045 3.9528046c.1184998.3442993-.272995.6291962-.5578918.4155884l-3.3712006-2.4452972c-.1306-.0950928-.2967987-.0950928-.4273071 0l-3.3710938 2.4452972c-.2848969.2136078-.6766968-.0712891-.5579071-.4155884l1.2817993-3.9528046c.0475006-.1542053 0-.3204956-.1304016-.4152985l-3.3712006-2.4453125c-.2848969-.2016907-.1422882-.6644897.2136993-.6644897h4.1664124c.1543884 0 .2967987-.095108.3441925-.2495117l1.2938995-3.9647827c.1067963-.3321075.581604-.3321075.6884003 0l1.293808 3.9647827c.0475922.1544037.1899872.2495117.3442993.2495117h4.1664886c.3561096 0 .4984131.4627991.213501.6644897L160.2602997 196.346817z" class="colorf49758 svgShape"></path><path fill="#f5e9da" d="M179.4678955,196.346817c-0.1306915,0.0948029-0.1781921,0.2610931-0.1306915,0.4152985
							l1.2820892,3.9528046c0.1184998,0.3442993-0.272995,0.6291962-0.5578918,0.4155884l-3.3712006-2.4452972
							c-0.1306-0.0950928-0.2967987-0.0950928-0.4273071,0l-3.3710938,2.4452972
							c-0.2848969,0.2136078-0.6766968-0.0712891-0.5579071-0.4155884l1.2818146-3.9528046
							c0.0474854-0.1542053,0-0.3204956-0.1304016-0.4152985l-3.3712006-2.4453125
							c-0.2849121-0.2016907-0.1423035-0.6644897,0.2136993-0.6644897h4.1663971
							c0.1544037,0,0.2967987-0.095108,0.3441925-0.2495117l1.2938995-3.9647827
							c0.1068115-0.3321075,0.5817108-0.3321075,0.6884003,0l1.2938995,3.9647827
							c0.0475006,0.1544037,0.1899109,0.2495117,0.3442078,0.2495117h4.1665039
							c0.3560944,0,0.4983978,0.4627991,0.2135925,0.6644897L179.4678955,196.346817z" class="colordadaf5 svgShape"></path></g><g fill="#000000" class="color000 svgShape"><path fill="#faf3ea" d="M121.4169006,112.4623184v19.2668991c0,2.2135925,1.7946014,4.0081024,4.0175018,4.0081024h11.47789
						l8.5084076,9.0457916v-9.0457916h4.3453064c2.2135925,0,4.0172882-1.7945099,4.0172882-4.0081024v-19.2668991
						c0-2.222702-1.8036957-4.0172043-4.0172882-4.0172043h-24.331604
						C123.2115021,108.4451141,121.4169006,110.2396164,121.4169006,112.4623184z" class="coloreaeafa svgShape"></path><linearGradient id="SVGID_2_" x1="-250.843" x2="-232.351" y1="122.511" y2="122.511" gradientTransform="matrix(-1 0 0 1 -103.997 0)" gradientUnits="userSpaceOnUse"><stop offset="0" stop-color="#f7889a" class="stopColorf788a8 svgShape"></stop><stop offset="1" stop-color="#e62b4a" class="stopColorff4d7b svgShape"></stop></linearGradient><path fill="url(#SVGID_2_)" d="M128.3538055,119.3671112c0,1.2935028,0.5010986,2.5870056,1.4850006,3.5800018l0.6011963,0.6012039
					l7.160202,7.1693039l7.1599884-7.1693039l0.6014099-0.6012039c0.9837036-0.9929962,1.4846954-2.286499,1.4846954-3.5800018
					c0-1.2934952-0.5009918-2.5871964-1.4846954-3.5802002c-1.977005-1.9766998-5.1835022-1.9766998-7.1603088,0
					l-0.6010895,0.6014023l-0.6014099-0.6014023c-1.9766998-1.9766998-5.1832886-1.9766998-7.1599884,0
					C128.8549042,116.7799149,128.3538055,118.073616,128.3538055,119.3671112z"></path></g><g fill="#000000" class="color000 svgShape"><path fill="#fcf7f0" d="M178.6954041,106.5460129l-3.0578003-9.0450974
						c-0.9537048-2.8208008,0.5623932-5.8858032,3.383194-6.8394089l0.5301971-0.1792908
						c2.8206024-0.9534988,5.8749084,0.5663986,6.8285065,3.3871994l3.0578003,9.0450897
						c0.9499969,2.8099976-0.5554962,5.8714066-3.3760986,6.824913l-0.5301971,0.1792984
						C182.7102966,110.8723145,179.645401,109.3560181,178.6954041,106.5460129z" class="colorf0f2fc svgShape"></path><path fill="#215685" d="M261.4321899 404.7220154l8.2068176.128479c.5379028 5.8046265-4.447113 18.1743164 3.2814026 21.8413086 9.4604797 4.4880066 13.3440857 6.1203003 15.1790771 11.4219055.2122192.6130981-.2301941 1.2627869-.8788757 1.252594l-27.3721008-.4284973c-.5742188-.0090027-1.0014038-.5263062-.879303-1.0874939C259.5440063 435.2095032 262.6169128 409.6054993 261.4321899 404.7220154zM217.2689972 403.4312134l8.205307.2041931c.4842987 5.8092957-4.6146088 18.1325073 3.0796967 21.870697 9.4187012 4.5751038 13.2870026 6.243103 15.072998 11.5614014.206604.6151123-.241806 1.2607117-.8903961 1.2445068l-27.3668976-.6810913c-.5742035-.0143127-.9966125-.5355225-.8693085-1.0956116C215.0995026 433.8999023 218.4085999 408.3254089 217.2689972 403.4312134z" class="color212785 svgShape"></path><path fill="#388cc1" d="M271.4872131,413.5820923c-0.3141174,0.6994019-5.8449097,0.7376099-9.2221069,0.686615
											c-1.5012207-0.0168152-2.5760193-0.0517883-2.5760193-0.0517883l-5.6466827-45.3954163
											c-0.2904968-3.2994995-0.7619019-6.5816956-1.2987061-9.851593
											c-2.5056-15.1235046-2.8042908-75.894989-2.8042908-75.894989l-6.1883087-0.2244263
											c0,0-7.2211914,49.4533997-8.5063019,63.2016296c-0.2082977,2.2037964-0.5885925,4.3596802-1.0630951,6.5276794
											c-0.5077972,2.3406067-0.6612091,4.0906982-0.5086975,7.7041931
											c0.2192993,5.2250977-6.1256104,54.0082092-6.1256104,54.0082092L215.9167023,413.1987
											c0,0,1.4299011-58.9367981,2.5845947-71.2663879c0.9945068-10.593689,0.719696-67.2424011,0.6179047-82.9252014
											c-0.0010986-0.2384033-0.0023956-0.4692993-0.0039978-0.685791
											c-0.0174103-2.1302185-0.0220032-3.3503113-0.0220032-3.3503113l0.7277985,0.0476074l51.1348114,2.7522888
											c0,0,0.0056763,0.6213074,0.0057983,1.7401123c0.0032959,0.4332886,0.004303,0.9528809,0.0110779,1.5307922
											l-0.0018921,0.0718994c-0.0032959,0.1300049,0.0005188,0.2601013-0.0029907,0.3972168
											c0.0118103,1.2272949,0.01651,2.7290955,0.022583,4.4546814
											c0.0670166,16.1944885,0.2801208,51.6747131,0.5997009,61.9776917
											C272.0653076,341.462616,271.9164124,412.6115112,271.4872131,413.5820923z" class="color4f5cd3 svgShape"></path><path fill="#fdf2e4" d="M267.4883118 413.5768127l-.4570007-.2030945c.3719788-1.4453125.5986023-70.8897095.0848999-85.5274048-.3662109-11.592804-.5682983-53.672821-.6045227-61.9912109-.0018921-1.6318054-.0096741-3.0673828-.0166016-4.2597961l-.0009766-.1914063.5-.0018921.0009766.1903992c.0069275 1.1933899.0147095 2.6289063.0166016 4.2617188.0362244 8.3154907.2373047 50.389679.6045227 61.9755859C268.0840149 341.1569214 267.9775085 412.4801025 267.4883118 413.5768127zM220.3222961 413.3092041l-.5-.0116882c.0146027-.5899048 1.4414063-59.0888977 2.589798-71.281311 1.031311-10.9511108.6914063-71.5498047.6123047-83.585907l-.0283051-3.6132813.9990082.0556946-.027298.5L223.5 255.3463135l.0243988 3.0801086c.0791016 12.0409851.4190063 72.6620789-.6141968 83.6366882C221.7626953 354.2389221 220.3368988 412.7203064 220.3222961 413.3092041z" class="colore4e8fd svgShape"></path><path fill="#3f92c7" d="M234.1808929 352.581604c.4769135-2.1663818.8579102-4.3277893 1.0656128-6.5328979 1.2238922-13.1333923 7.9133911-59.1446838 8.5045929-63.2004089l-5.8419037.0028076c-1.6035004 3.0707092-2.8754883 6.8084106-3.2702942 10.3208008-1.0796051 9.7260132-1.4830017 19.5151062-1.884903 29.2908936-1.4460907 35.7890015-5.4875031 55.8637085-6.961792 91.6632996l1.7587891.1657104c0 0 6.3408051-48.7846069 6.1226044-54.0049133C233.5229034 356.6690979 233.6737061 354.9225159 234.1808929 352.581604zM255.4832001 347.4081116c-2.3585052-21.0332031-5.3101044-43.6329956-1.1253052-64.2159119l-4.4178009-.1163025c.0416107 6.7039185.452301 61.7080078 2.8025055 75.8945007.5382996 3.271698 1.0074005 6.5509033 1.2969055 9.8539124l5.6483917 45.3956909c0 0 1.0753174.0327148 2.5748901.0513C261.0621948 386.8738098 258.5393982 374.6671143 255.4832001 347.4081116z" class="color3f47c7 svgShape"></path><g fill="#000000" class="color000 svgShape"><path fill="#2e77a5" d="M270.9486084,263.0984192c-3.8224182,0.977478-10.3803101,3.3353882-22.0976105,2.2326965
									c-9.0307922-0.8532104-24.0428009-1.5645142-29.7317963-6.3240051
									c-0.0010986-0.2384033-0.0023956-0.4692993-0.0039978-0.685791
									c-0.0174103-2.1302185-0.0220032-3.3503113-0.0220032-3.3503113l0.7277985,0.0476074
									c5.6551056,4.9533081,20.5283051,4.6069946,29.552002,5.4599915
									c11.5660858,1.0848083,17.7509918,0.6013184,21.5886078-0.9675903
									c0.0072021,0.0001831,0.0215759,0.0004883,0.0289917-0.0063171
									c-0.0007019,0.5844116-0.0123901,1.0392151-0.0179138,1.5371094l-0.0018921,0.0718994
									C270.9570923,261.6477051,270.9490967,262.2397156,270.9486084,263.0984192z" class="color2e34a5 svgShape"></path><rect width="1.555" height="9.541" x="237.014" y="257.165" fill="#549fd7" transform="rotate(5.381 237.791 261.935)" class="color5e72fa svgShape"></rect><rect width="1.555" height="9.541" x="258.529" y="259.625" fill="#549fd7" transform="rotate(5.381 259.306 264.395)" class="color5e72fa svgShape"></rect><path fill="#fdf2e4" d="M250.9187927,267.883606l-5.5004883-0.501709
											c-0.8827057-0.0804749-1.5351105-0.8632813-1.4544983-1.7454834l0.261795-2.8666077
											c0.0805054-0.8822021,0.8639984-1.5346985,1.7467957-1.4541016l5.5003967,0.5016174
											c0.8828125,0.0804749,1.5351105,0.8639832,1.4545135,1.7461853l-0.2618103,2.8666077
											C252.5848999,267.3123169,251.8014984,267.9641113,250.9187927,267.883606z M245.9212952,261.8752136
											c-0.5737915-0.0523071-1.082489,0.3718872-1.1348877,0.9458008l-0.2618103,2.8666077
											c-0.0523987,0.5731812,0.3710022,1.0823975,0.944809,1.1346741l5.5004883,0.501709
											c0.5738068,0.0523071,1.0824127-0.3718872,1.1348114-0.9450989l0.261795-2.8666077
											c0.0523987-0.5737915-0.3710022-1.0830994-0.9447937-1.135376L245.9212952,261.8752136z" class="colore4e8fd svgShape"></path><rect width=".557" height="11.485" x="247.139" y="267.351" fill="#fdf2e4" transform="rotate(5.381 247.417 273.093)" class="colore4e8fd svgShape"></rect></g><g fill="#000000" class="color000 svgShape"><linearGradient id="SVGID_3_" x1="2121.641" x2="2126.641" y1="100.383" y2="189.421" gradientTransform="rotate(1.473 -1494.811 -72980.945)" gradientUnits="userSpaceOnUse"><stop offset="0" stop-color="#f7889a" class="stopColorf788a8 svgShape"></stop><stop offset="1" stop-color="#e62b4a" class="stopColorff4d7b svgShape"></stop></linearGradient><path fill="url(#SVGID_3_)" d="M271.0130005,258.459198c-0.4133911,6.885498-52.2145081,3.0956116-51.7917023-3.7895813
									c2.6130066-44.2752991-8.7924042-75.7144012-1.9774933-82.8413086
									c0.7572937-0.7929993,3.2533875-5.6503906,14.3515015-9.6252899
									c0.4385986-0.1587067,0.8961945-0.3169098,1.3628998-0.4656067
									c0.1525879-0.0527954,0.3143921-0.1051941,0.4763947-0.1576996
									c0.3423004-0.0858002,0.6557922-0.1533966,0.9880066-0.2201996
									c0.0283966,0.0007019,0.0760956-0.0170135,0.1044922-0.0162964c1.9933929-0.373703,4.012207-0.633606,6.0373077-0.770401
									c1.684494-0.1174011,3.3856964-0.1490021,5.0847931-0.0957947c0.226593,0.0057983,0.4530945,0.0115967,0.6793976,0.026886
									c0.4436951,0.0114136,0.8869019,0.0417023,1.3395081,0.0723114
									c0.3583984,0.0278931,0.7169952,0.0370941,1.1027985,0.1037903
									c1.6030884,0.1074066,3.2319031,0.3193054,4.8865967,0.6264954c0.5359039,0.0988159,1.0809021,0.2074127,1.616394,0.3249969
									c0.4604034,0.0969086,0.9205933,0.2031097,1.3804932,0.3190002
									c4.7397156,1.1987152,9.2107239,3.2977142,12.2090149,6.8228149
									C272.0806885,187.0569153,270.3161011,226.21521,271.0130005,258.459198z"></path></g><g fill="#000000" class="color000 svgShape"><path fill="#fdfaf6" d="M256.6543884,161.9505005c-0.4178772,1.9258118-1.6438904,3.6796112-3.5505829,5.0853119
										c-2.3208008,1.7162018-5.4167023,2.7136078-8.7156982,2.7985992
										c-0.3120117,0.0108948-0.6332092,0.0121002-0.944809,0.0040894
										c-6.0984955-0.1568909-10.9284973-3.3513947-11.8479919-7.6354828
										c0.4385986-0.1587067,0.8961945-0.3169098,1.3628998-0.4656067
										c0.1525879-0.0527954,0.3143921-0.1051941,0.4763947-0.1576996
										c0.3423004-0.0858002,0.6557922-0.1533966,0.9880066-0.2201996
										c0.0283966,0.0007019,0.0760956-0.0170135,0.1044922-0.0162964c1.9933929-0.373703,4.012207-0.633606,6.0373077-0.770401
										c1.9090881-0.0359039,3.8465881-0.0709991,5.7641907-0.0689087
										c0.4436951,0.0114136,0.8869019,0.0417023,1.3395081,0.0723114
										c0.3583984,0.0278931,0.7169952,0.0370941,1.1027985,0.1037903
										c1.6030884,0.1074066,3.2319031,0.3193054,4.8865967,0.6264954
										c0.5359039,0.0988159,1.0809021,0.2074127,1.616394,0.3249969
										C255.7342987,161.7284088,256.1944885,161.83461,256.6543884,161.9505005z" class="colorfff svgShape"></path><linearGradient id="SVGID_4_" x1="-1441.334" x2="-1441.263" y1="154.584" y2="164.639" gradientTransform="matrix(-1 0 0 1 -1197.168 0)" gradientUnits="userSpaceOnUse"><stop offset=".004" stop-color="#fcddb3" class="stopColorfcb3b3 svgShape"></stop><stop offset="1" stop-color="#fc8ea0" class="stopColorfc8e8e svgShape"></stop></linearGradient><path fill="url(#SVGID_4_)" d="M255.2738953,161.6315002c-0.8419952,3.7192078-5.3760986,6.6443176-10.9250946,6.7944183
										c-5.8043976,0.1623993-10.6696014-2.7684174-11.3905945-6.6885071
										c0.1525879-0.0527954,0.3143921-0.1051941,0.4763947-0.1576996
										c0.3423004-0.0858002,0.6557922-0.1533966,0.9880066-0.2201996
										c0.0283966,0.0007019,0.0760956-0.0170135,0.1044922-0.0162964c0.8638-0.1665955,1.736496-0.3047028,2.6179047-0.4143982
										l0.5473938-21.2692108c0.0888977-3.4551086,2.964798-6.1867981,6.4199066-6.0979004
										c1.7276917,0.0445099,3.267395,0.7832031,4.380188,1.9548035c1.1038055,1.1620026,1.7528076,2.7375031,1.7084045,4.4649048
										l-0.5345001,20.7689056c1.3099976,0.1187897,2.646698,0.3042908,3.9911041,0.5561829
										C254.1934052,161.4053192,254.7384033,161.513916,255.2738953,161.6315002z"></path><linearGradient id="SVGID_5_" x1="-1440.952" x2="-1442.014" y1="129.559" y2="155.263" gradientTransform="matrix(-1 0 0 1 -1197.168 0)" gradientUnits="userSpaceOnUse"><stop offset=".004" stop-color="#fcddb3" class="stopColorfcb3b3 svgShape"></stop><stop offset="1" stop-color="#fc8ea0" class="stopColorfc8e8e svgShape"></stop></linearGradient><path fill="url(#SVGID_5_)" d="M254.7333069,127.1465073l1.5279846,15.3524094
											c0.6287231,6.3161926-3.9924927,11.9609985-10.3089905,12.5896912
											c-6.3166046,0.6287079-11.9598999-3.9944916-12.5886078-10.310791l-1.5279999-15.3523102
											c-0.6286926-6.3162918,3.9927063-11.9610901,10.3093109-12.5897903
											c3.1580963-0.3143005,6.1360931,0.6740952,8.4512939,2.5720978
											C252.8628998,121.2631149,254.4188995,123.9873123,254.7333069,127.1465073z"></path><linearGradient id="SVGID_6_" x1="-1431.013" x2="-1425.799" y1="134.888" y2="134.888" gradientTransform="matrix(-1 0 0 1 -1197.168 0)" gradientUnits="userSpaceOnUse"><stop offset=".004" stop-color="#fcddb3" class="stopColorfcb3b3 svgShape"></stop><stop offset="1" stop-color="#fc8ea0" class="stopColorfc8e8e svgShape"></stop></linearGradient><path fill="url(#SVGID_6_)" d="M233.8444977,139.7549133c-1.139801,0.1869965-2.1429901-0.7308044-2.8215027-1.6665955
											c-1.1740875-1.6240997-1.9633026-3.5101013-2.317688-5.490509
											c-0.1412048-0.815094-0.1417999-1.8415985,0.5464935-2.3371887
											c0.3865051-0.3146057,0.9541016-0.3264008,1.436203-0.1529999
											c0.4819031,0.1746979,0.8784943,0.509491,1.2205963,0.8691864
											c0.972702,1.0529022,1.5847015,2.4726105,1.6560059,3.9073029L233.8444977,139.7549133z"></path><linearGradient id="SVGID_7_" x1="-1459.655" x2="-1426.234" y1="124.272" y2="124.272" gradientTransform="matrix(-1 0 0 1 -1197.168 0)" gradientUnits="userSpaceOnUse"><stop offset="0" stop-color="#4093c8" class="stopColor4048c8 svgShape"></stop><stop offset="1" stop-color="#2d76a4" class="stopColor2d32a4 svgShape"></stop></linearGradient><path fill="url(#SVGID_7_)" d="M259.8008118,127.2965088c-4.9884186,3.3003082-23.8416138,0.4008026-24.1671143,0.2627029
												c-0.0305023-0.0028992-0.0697021,0.0858002-0.0839996,0.2385025
												c-0.1921997,1.5514069,0.042099,10.1746063-0.7888947,11.4810944
												c-0.9033051,1.4228058-0.871109-1.6973877-1.1515045-2.4781952
												c-0.2651062-0.7785034-1.5084991-5.7115936-1.5084991-5.7115936s-0.232605-2.2684021-1.2454071-4.257103
												c-1.0282898-1.9887009-3.0230865-6.6236038-0.7314911-9.7159042
												c2.2765045-3.0943985,5.1488953-1.4084015,5.1488953-1.4084015s6.5847015-7.5038986,13.5308075-6.7572937
												c6.9460907,0.7465973,4.0063934,6.1473999,4.0063934,6.1473999s3.5039063-0.9322128,6.0205994-0.3712997
												c1.2681885,0.2575989,2.2690125,0.9055939,2.4685974,2.2166977
												C261.2991943,116.9431152,264.790802,123.9813156,259.8008118,127.2965088z"></path><linearGradient id="SVGID_8_" x1="-1453.875" x2="-1455.406" y1="130.312" y2="131.842" gradientTransform="matrix(-1 0 0 1 -1197.168 0)" gradientUnits="userSpaceOnUse"><stop offset="0" stop-color="#4093c8" class="stopColor4048c8 svgShape"></stop><stop offset="1" stop-color="#2d76a4" class="stopColor2d32a4 svgShape"></stop></linearGradient><path fill="url(#SVGID_8_)" d="M259.8008118,127.2965088c-4.9884186,3.3003082-23.8416138,0.4008026-24.1671143,0.2627029
												c-0.0305023-0.0028992-0.0697021,0.0858002-0.0839996,0.2385025
												c-0.1134033-0.1031036-0.2098999-0.2203979-0.2915039-0.3355026
												c0.4425049-0.4503937,1.4943085-0.1822968,2.0783081-0.1731949
												c0.8444977,0.0179977,1.6904907,0.020195,2.5242004-0.0087051
												c1.6811981-0.0414963,3.3708954-0.1745987,5.0153046-0.4818039
												c3.4459991-0.6446915,6.8235931-2.0343933,9.3307953-4.4758911
												c2.1509857-2.0898056,3.5410919-4.7598038,4.6237946-7.596199
												c1.2681885,0.2575989,2.2690125,0.9055939,2.4685974,2.2166977
												C261.2991943,116.9431152,264.790802,123.9813156,259.8008118,127.2965088z"></path><g fill="#000000" class="color000 svgShape"><path fill="#243544" d="M252.449707 133.2476196c-1.2677002.4350891-2.9125061.3170013-4.0943146-.2909088-.2569885-.1322021-.2397919-.3647919.0337067-.4586029.6309967-.2164001 1.3578949-.2948914 2.0807953-.2427979.7141113.0514984 1.418808.2322998 2.0112.5326996C252.7404022 132.9195099 252.723999 133.1535034 252.449707 133.2476196zM241.6006927 132.9488068c-1.157486.6830139-2.7898865.9009094-4.0718994.5417023-.2791901-.0749969-.3078918-.3098907-.0573883-.4603882.5699921-.3368073 1.2717896-.5620117 1.983902-.6571045.711792-.0950012 1.4425964-.0595093 2.0792999.1158905C241.813797 132.5639191 241.8513031 132.7983093 241.6006927 132.9488068z" class="color121c7c svgShape"></path><path fill="#fdfaf6" d="M243.6215973,151.1339111c-1.6013031,0.0180054-2.6871948-1.1006927-3.0919952-1.8339996
												c-0.1161041-0.2097931-0.0393066-0.4727936,0.1699982-0.5890961
												c0.2093048-0.1172028,0.4734039-0.040802,0.5903931,0.1676025
												c0.0459137,0.0809937,1.1379089,1.9736023,3.2954102,1.200592
												c0.2258911-0.0811005,0.4750977,0.036911,0.5558014,0.2627106
												c0.0806885,0.2260895-0.0363007,0.4748993-0.2629089,0.5559998
												C244.4308929,151.0581207,244.0113068,151.1295013,243.6215973,151.1339111z" class="colorfff svgShape"></path><path fill="#243544" d="M242.3887024 138.9663086c.0052032.4564056-.3607025.8305054-.8171082.8357086-.4563904.0050964-.8305969-.3608093-.8356934-.8171997-.0050964-.4564056.3607025-.8305054.8170929-.8357086C242.0093994 138.1440125 242.383606 138.5098114 242.3887024 138.9663086zM250.5758972 138.8743134c.0052032.4564056-.3607025.8305054-.8170929.8356934-.4564056.0051117-.8305969-.3607941-.8357086-.8171997-.0050964-.4563904.3607025-.8304901.8171082-.8356934C250.1965942 138.0520172 250.5708008 138.4178162 250.5758972 138.8743134z" class="color121c7c svgShape"></path><path fill="#fdfaf6" d="M250.628006 143.5077209c-2.2687073.0254974-4.1361084-1.799408-4.1616058-4.068222-.0254974-2.2688904 1.8005066-4.1354828 4.0691071-4.1609955 2.268692-.0254822 4.1360931 1.7996063 4.1615906 4.068512S252.8966064 143.4822083 250.628006 143.5077209zM250.5433044 135.9739075c-1.8857117.0212097-3.4019012 1.572403-3.3807068 3.4578094.0212097 1.8852997 1.5718079 3.4017944 3.4575958 3.3806915 1.8857117-.0211945 3.4019012-1.5722961 3.3807068-3.4575958S252.4290924 135.952713 250.5433044 135.9739075zM241.2409058 143.6132202c-2.2686005.0254974-4.1361084-1.799408-4.1616058-4.0682068-.0254974-2.2689056 1.8005066-4.1355133 4.0691071-4.1609955 2.268692-.0255127 4.1352997 1.7995911 4.1607971 4.0684814C245.3347015 141.7214203 243.5095978 143.5877075 241.2409058 143.6132202zM241.1562958 136.0794067c-1.8858032.0212097-3.4019012 1.572403-3.3806915 3.4577026.0211029 1.8853912 1.5717926 3.4019012 3.457489 3.3807068 1.884903-.0211029 3.401001-1.5722046 3.3798065-3.4575043C244.5917969 137.5750122 243.0411072 136.0582123 241.1562958 136.0794067z" class="colorfff svgShape"></path><path fill="#fdfaf6" d="M245.1065979,139.71521l-0.4660034-0.516098
												c0.4985046-0.4506073,0.969101-0.6596069,1.4273071-0.615097
												c0.3858948,0.0366058,0.7313995,0.2527008,1.0252991,0.6416931l-0.5556946,0.4193115
												c-0.1733093-0.2303009-0.3487091-0.3507996-0.5357056-0.3686066
												C245.7586975,139.2526093,245.4496002,139.4051208,245.1065979,139.71521z" class="colorfff svgShape"></path><g fill="#000000" class="color000 svgShape"><linearGradient id="SVGID_9_" x1="-1443.107" x2="-1443.107" y1="150.164" y2="148.415" gradientTransform="matrix(-1 0 0 1 -1197.168 0)" gradientUnits="userSpaceOnUse"><stop offset=".004" stop-color="#fcddb3" class="stopColorfcb3b3 svgShape"></stop><stop offset="1" stop-color="#fc8ea0" class="stopColorfc8e8e svgShape"></stop></linearGradient><path fill="url(#SVGID_9_)" d="M247.5334015,146.3586121l-3.1817017,0.0357056
											c-0.2294006,0.002594-0.3697052-0.2330017-0.2725983-0.4328156
											c0.5157013-1.0691833,0.946991-2.1754913,1.2330017-3.2647858
											c0.0291901-0.1302948,0.1430969-0.2160034,0.2807007-0.2176056l0.6042023-0.0067902
											c0.1376953-0.0015106,0.2533875,0.0815887,0.2929993,0.2110901
											c0.3105927,1.0827026,0.7587891,2.1790924,1.3062897,3.2362976
											C247.8979034,146.1173096,247.7552032,146.3561096,247.5334015,146.3586121z"></path></g></g></g><g fill="#000000" class="color000 svgShape"><path fill="#fcf7f0" d="M304.7991028,104.9518127l3.9057007-8.7126007
						c1.2179871-2.7170944,4.4133911-3.934494,7.1304932-2.7165985l0.5107117,0.2290039
						c2.7168884,1.2178879,3.9238892,4.4087982,2.7059021,7.1259995l-3.9057007,8.7126007
						c-1.2133179,2.7066956-4.3984985,3.9286957-7.1154175,2.7108002l-0.5108032-0.2290039
						C304.803009,110.8540115,303.5857849,107.6585083,304.7991028,104.9518127z" class="colorf0f2fc svgShape"></path></g><g fill="#000000" class="color000 svgShape"><linearGradient id="SVGID_10_" x1="2078.17" x2="2128.643" y1="-3491.635" y2="-3491.635" gradientTransform="scale(1 -1) rotate(-8.141 24734.885 10942.288)" gradientUnits="userSpaceOnUse"><stop offset="0" stop-color="#f7889a" class="stopColorf788a8 svgShape"></stop><stop offset="1" stop-color="#e62b4a" class="stopColorff4d7b svgShape"></stop></linearGradient><path fill="url(#SVGID_10_)" d="M311.5793152,98.2001114c-3.1688232-0.4532928-6.4043274,1.1486053-7.883606,4.1803055
						l-18.0583191,36.9713898l-26.9212036,33.1517029c-2.6382751,3.2503052-2.1441956,8.0242004,1.1068115,10.6632996
						c3.2521057,2.64151,8.0257874,2.1436005,10.6640015-1.1060028l27.4675903-33.824295
						c0.3630981-0.4468994,0.6736145-0.9340973,0.9257202-1.4521942l18.4375916-37.7509995
						c1.8378906-3.7619019,0.2781982-8.3009033-3.4837952-10.1380997
						C313.1029053,98.5385056,312.3428955,98.3094177,311.5793152,98.2001114z"></path></g><g fill="#000000" class="color000 svgShape"><linearGradient id="SVGID_11_" x1="1695.823" x2="1746.29" y1="-3517.706" y2="-3517.706" gradientTransform="rotate(178.379 935.045 -1700.177)" gradientUnits="userSpaceOnUse"><stop offset="0" stop-color="#f7889a" class="stopColorf788a8 svgShape"></stop><stop offset="1" stop-color="#e62b4a" class="stopColorff4d7b svgShape"></stop></linearGradient><path fill="url(#SVGID_11_)" d="M182.7182007,93.5286179c3.1996918-0.0921097,6.2333069,1.8653946,7.360199,5.0449982
						l13.7613983,38.7764053l22.9994049,35.98349c2.2536926,3.5278015,1.2229004,8.2151947-2.305603,10.469696
						c-3.5299988,2.2568054-8.2167969,1.2223053-10.4705048-2.3047943l-23.4662018-36.7136993
						c-0.3101959-0.4850006-0.5636902-1.004303-0.7556-1.5476074l-14.0499878-39.5937881
						c-1.4008026-3.9457016,0.6622925-8.2792053,4.6080017-9.6791992
						C181.1661072,93.6925049,181.9470978,93.5507126,182.7182007,93.5286179z"></path></g></g><g fill="#000000" class="color000 svgShape"><path fill="#f5e9da" d="M378.9599915 120.6959152h32.296814c1.6291809 0 2.9499817 1.3208008 2.9499817 2.9500961v12.4416962c0 1.6292114-1.3208008 2.9500122-2.9499817 2.9500122h-29.5159912c-.3905029 0-.7649231.1550903-1.0410156.4311981l-4.2365112 4.2363892c-.1672974.1673126-.4532776.0488129-.4532776-.1878052v-19.8714905C376.0100098 122.016716 377.3308105 120.6959152 378.9599915 120.6959152zM369.6943054 105.7846146l-25.9338989-.0138016c-1.3083191-.0007019-2.3695068 1.0593033-2.3702087 2.3675995l-.0053101 9.9906006c-.0007019 1.3082047 1.0593262 2.3694 2.3676147 2.3701019l23.7011108.0125961c.3134766.000206.6140747.1249008.8356934.3467026l3.3999939 3.4036026c.1343079.1343994.3640137.0393982.3641052-.1506042l.0084839-15.9565964C372.0625916 106.8465042 371.002594 105.7853165 369.6943054 105.7846146z" opacity=".3" class="colordadaf5 svgShape"></path></g><g fill="#000000" class="color000 svgShape"><path fill="#fc8ea0" d="M435.4520874,348.8574219h-1.8476868v-12.4420166
								c0-6.3511047-5.1669922-11.5181885-11.5180969-11.5181885s-11.5181885,5.1670837-11.5181885,11.5181885v12.4420166
								h-1.8477173v-12.4420166c0-7.3699036,5.9960022-13.3659058,13.3659058-13.3659058
								c7.3697815,0,13.3657837,5.9960022,13.3657837,13.3659058V348.8574219z" class="colorfc8e8e svgShape"></path><linearGradient id="SVGID_12_" x1="386.235" x2="386.235" y1="426.195" y2="352.566" gradientUnits="userSpaceOnUse"><stop offset=".004" stop-color="#fcddb3" class="stopColorfcb3b3 svgShape"></stop><stop offset="1" stop-color="#fc8ea0" class="stopColorfc8e8e svgShape"></stop></linearGradient><path fill="url(#SVGID_12_)" d="M389.1568909,343.5980225l-8.3757935,91.59198
									c-0.1334839,1.4938965,1.043396,2.7803955,2.5432129,2.7803955h8.3757935v-96.6987
									C390.3779907,341.271698,389.2744141,342.2810059,389.1568909,343.5980225z"></path><linearGradient id="SVGID_13_" x1="393.36" x2="464.903" y1="389.621" y2="389.621" gradientUnits="userSpaceOnUse"><stop offset=".004" stop-color="#fcddb3" class="stopColorfcb3b3 svgShape"></stop><stop offset="1" stop-color="#fc8ea0" class="stopColorfc8e8e svgShape"></stop></linearGradient><path fill="url(#SVGID_13_)" d="M464.8930969,435.1900024l-8.375885-91.59198
									c-0.1176147-1.3170166-1.2210999-2.3263245-2.5432129-2.3263245h-60.6138916l11.6864929,96.6987h57.3031921
									C463.8496094,437.9703979,465.0263977,436.6838989,464.8930969,435.1900024z"></path><linearGradient id="SVGID_14_" x1="398.373" x2="398.373" y1="360.483" y2="426.291" gradientUnits="userSpaceOnUse"><stop offset=".004" stop-color="#fcddb3" class="stopColorfcb3b3 svgShape"></stop><stop offset="1" stop-color="#fc8ea0" class="stopColorfc8e8e svgShape"></stop></linearGradient><polygon fill="url(#SVGID_14_)" points="391.7 341.272 391.7 437.97 405.047 437.97 393.36 341.272"></polygon><circle cx="425.905" cy="387.25" r="16.568" fill="#feeed8" opacity=".5" transform="rotate(-22.5 425.905 387.25)" class="colorfed8d8 svgShape"></circle><g fill="#000000" class="color000 svgShape"><path fill="#fc8ea0" d="M414.7218018 347.6899109c0 1.1629944-.9428101 2.1058044-2.1058044 2.1058044-1.1629028 0-2.1056824-.9428101-2.1056824-2.1058044 0-1.1629028.9427795-2.1057129 2.1056824-2.1057129C413.7789917 345.584198 414.7218018 346.5270081 414.7218018 347.6899109zM439.1679993 347.6899109c0 1.1629944-.942688 2.1058044-2.1057129 2.1058044-1.1629944 0-2.1056824-.9428101-2.1056824-2.1058044 0-1.1629028.942688-2.1057129 2.1056824-2.1057129C438.2253113 345.584198 439.1679993 346.5270081 439.1679993 347.6899109z" class="colorfc8e8e svgShape"></path></g><g fill="#000000" class="color000 svgShape"><path fill="#fcddb3" d="M437.4999084,347.6900024L437.4999084,347.6900024
								c-0.5103149,0-0.9239197-0.4136963-0.9239197-0.9238892v-11.2731018c0-6.267395-4.9046936-11.571991-11.1694031-11.7579956
								c-6.5095825-0.1932983-11.8668823,5.04599-11.8668823,11.5130005v11.5180969
								c0,0.5101929-0.4136047,0.9238892-0.9237976,0.9238892l0,0c-0.5103149,0-0.9239197-0.4136963-0.9239197-0.9238892
								v-11.2673035c0-7.2987061,5.7469177-13.4401855,13.0435181-13.612915
								c7.5166016-0.177887,13.6882019,5.8850098,13.6882019,13.3621216v11.5180969
								C438.4237061,347.2763062,438.0101013,347.6900024,437.4999084,347.6900024z" class="colorfcb3b3 svgShape"></path></g><g fill="#000000" class="color000 svgShape"><path fill="#ff4f6c" d="M370.990509,370.2846985h-1.4035034v-9.4502869c0-4.8240051-3.9245911-8.7485962-8.7485962-8.7485962
								c-4.8239136,0-8.7485046,3.9245911-8.7485046,8.7485962v9.4502869h-1.4035034v-9.4502869
								c0-5.5978088,4.5542908-10.1520081,10.1520081-10.1520081c5.5977783,0,10.1520996,4.5541992,10.1520996,10.1520081
								V370.2846985z" class="colorff4f7c svgShape"></path><linearGradient id="SVGID_15_" x1="333.608" x2="333.608" y1="429.026" y2="373.102" gradientUnits="userSpaceOnUse"><stop offset="0" stop-color="#ffca83" class="stopColorffb583 svgShape"></stop><stop offset="1" stop-color="#ff4f6c" class="stopColorff4f7c svgShape"></stop></linearGradient><path fill="url(#SVGID_15_)" d="M335.8269958,366.2900085l-6.361908,69.5686035
									c-0.1012878,1.1345825,0.792511,2.1117859,1.9317017,2.1117859h6.361908v-73.4473877
									C336.7544861,364.5230103,335.9162903,365.2896118,335.8269958,366.2900085z"></path><linearGradient id="SVGID_16_" x1="339.02" x2="393.36" y1="401.247" y2="401.247" gradientUnits="userSpaceOnUse"><stop offset="0" stop-color="#ffca83" class="stopColorffb583 svgShape"></stop><stop offset="1" stop-color="#ff4f6c" class="stopColorff4f7c svgShape"></stop></linearGradient><path fill="url(#SVGID_16_)" d="M393.3522949,435.8586121l-6.3617859-69.5686035
									c-0.0894165-1.0003967-0.9275208-1.7669983-1.9318237-1.7669983h-46.0391846l8.8764954,73.4473877h43.5245056
									C392.5596924,437.9703979,393.4536133,436.9931946,393.3522949,435.8586121z"></path><linearGradient id="SVGID_17_" x1="342.827" x2="342.827" y1="382.765" y2="438.599" gradientUnits="userSpaceOnUse"><stop offset="0" stop-color="#ffca83" class="stopColorffb583 svgShape"></stop><stop offset="1" stop-color="#ff4f6c" class="stopColorff4f7c svgShape"></stop></linearGradient><polygon fill="url(#SVGID_17_)" points="337.759 364.523 337.759 437.97 347.896 437.97 339.02 364.523"></polygon><circle cx="363.739" cy="399.445" r="12.584" fill="#feeed8" opacity=".5" transform="rotate(-45 363.739 399.445)" class="colorfed8d8 svgShape"></circle><g fill="#000000" class="color000 svgShape"><path fill="#ff4f6c" d="M355.244812,369.3980103c0,0.8833008-0.7161255,1.5993958-1.5994263,1.5993958
								c-0.8833923,0-1.5994873-0.716095-1.5994873-1.5993958s0.716095-1.5993958,1.5994873-1.5993958
								C354.5286865,367.7986145,355.244812,368.5147095,355.244812,369.3980103z" class="colorff4f7c svgShape"></path><circle cx="372.214" cy="369.398" r="1.599" fill="#ff4f6c" class="colorff4f7c svgShape"></circle></g><g fill="#000000" class="color000 svgShape"><path fill="#fc8ea0" d="M372.5458069,369.3980103L372.5458069,369.3980103
								c-0.3875122,0-0.7017212-0.314209-0.7017212-0.7016907v-8.5625c0-4.7604065-3.7252808-8.7895203-8.4836731-8.9308167
								c-4.9443054-0.1467896-9.0135193,3.8327026-9.0135193,8.7447205v8.7485962
								c0,0.3874817-0.3140869,0.7016907-0.7016907,0.7016907l0,0c-0.3875122,0-0.7016907-0.314209-0.7016907-0.7016907v-8.5581055
								c0-5.5437012,4.3649902-10.2084961,9.907196-10.3395996c5.709198-0.1351013,10.3967896,4.4698792,10.3967896,10.1491089
								v8.7485962C373.2474976,369.0838013,372.9334106,369.3980103,372.5458069,369.3980103z" class="colorfc8e8e svgShape"></path></g></g></g><g fill="#000000" class="color000 svgShape"><path fill="#fc8ea0" d="M87.4624023,395.6358948H66.142601c-0.6844025,0-1.2392044,0.5548096-1.2392044,1.2391968v39.8561096
					c0,0.6844177,0.5548019,1.2391968,1.2392044,1.2391968h21.3198013V395.6358948z" class="colorfc8e8e svgShape"></path><path fill="#fcddb3" d="M87.4624023,395.6358948v42.3345032h35.5323944c0.6844025,0,1.2393036-0.5547791,1.2393036-1.2391968
					v-39.8561096c0-0.6843872-0.5549011-1.2391968-1.2393036-1.2391968H87.4624023z" class="colorfcb3b3 svgShape"></path><path fill="#fc8ea0" d="M115.1352997,414.1661987v9.5873108c0,0.486908-0.3933029,0.8829041-0.8827972,0.8829041H98.5954971
					c-0.4869003,0-0.8827972-0.3959961-0.8827972-0.8829041v-9.5873108c0-0.4867859,0.3958969-0.8826904,0.8827972-0.8826904
					h15.6570053C114.7419968,413.2835083,115.1352997,413.6794128,115.1352997,414.1661987z" class="colorfc8e8e svgShape"></path><path fill="#fcddb3" d="M112.8881989 417.3930054c0 .1925049-.0777969.3635864-.2042007.4899902-.1243973.1245117-.2975006.2022095-.4899979.2022095h-11.5400009c-.3829956 0-.6941986-.3091125-.6941986-.6921997 0-.1925049.0777969-.3656006.2042007-.4899902.1243973-.1264038.2994995-.2042236.4899979-.2042236h11.5400009C112.5770035 416.6987915 112.8881989 417.0099182 112.8881989 417.3930054zM112.8881989 420.8417053c0 .1925049-.0777969.3637085-.2042007.4901123-.1243973.1243896-.2975006.202179-.4899979.202179h-11.5400009c-.3829956 0-.6941986-.309082-.6941986-.6922913 0-.1925049.0777969-.365509.2042007-.4899902.1243973-.1264038.2994995-.2041016.4899979-.2041016h11.5400009C112.5770035 420.1476135 112.8881989 420.4587097 112.8881989 420.8417053z" class="colorfcb3b3 svgShape"></path><path fill="#fc8ea0" d="M111.8067017,404.3255005l-1.8479004-1.1178894
					c-0.1459045-0.0883179-0.3283997-0.0892944-0.4754028-0.0028076l-2.3275986,1.3710022
					c-0.1766968,0.1040955-0.4008026,0.0798035-0.5510025-0.059906l-1.5788956-1.4675903
					c-0.1609039-0.1495056-0.4047012-0.1657104-0.5839005-0.0386047l-1.7248993,1.2226868
					c-0.3069992,0.2177124-0.7318039-0.0018005-0.7318039-0.3782959v-8.2182007h10.5251007v8.2929077
					C112.5103989,404.2900085,112.1156998,404.5125122,111.8067017,404.3255005z" class="colorfc8e8e svgShape"></path></g><g fill="#000000" class="color000 svgShape"><path fill="#eddcc5" d="M482.5,439.4458923h-450c-0.8281002,0-1.5-0.6717834-1.5-1.5c0-0.8280945,0.6718998-1.5,1.5-1.5h450
								c0.8280945,0,1.5,0.6719055,1.5,1.5C484,438.7741089,483.3280945,439.4458923,482.5,439.4458923z" class="colorc5cced svgShape"></path></g></svg></g></svg>